<?xml version="1.0" encoding="UTF-8" standalone="no"?>
<!DOCTYPE svg PUBLIC "-//W3C//DTD SVG 1.1//EN"
 "http://www.w3.org/Graphics/SVG/1.1/DTD/svg11.dtd">
<!-- Generated by graphviz version 8.1.0 (20230707.0739)
 -->
<!-- Pages: 1 -->
<svg width="1753pt" height="269pt"
 viewBox="0.00 0.00 1753.25 268.50" xmlns="http://www.w3.org/2000/svg" xmlns:xlink="http://www.w3.org/1999/xlink">
<g id="graph0" class="graph" transform="scale(1 1) rotate(0) translate(4 264.5)">
<polygon fill="white" stroke="none" points="-4,4 -4,-264.5 1749.25,-264.5 1749.25,4 -4,4"/>
<!-- _0_0_0 -->
<g id="node1" class="node">
<title>_0_0_0</title>
<polygon fill="none" stroke="black" points="0,-167.5 0,-215 76,-215 76,-167.5 0,-167.5"/>
<text text-anchor="middle" x="38" y="-197.7" font-family="Times New Roman,serif" font-size="14.00">?</text>
<polyline fill="none" stroke="black" points="0,-191.25 76,-191.25"/>
<text text-anchor="middle" x="38" y="-173.95" font-family="Times New Roman,serif" font-size="14.00">solutions:6</text>
</g>
<!-- _1_0_1 -->
<g id="node2" class="node">
<title>_1_0_1</title>
<polygon fill="none" stroke="black" points="119.5,-201.5 119.5,-249 195.5,-249 195.5,-201.5 119.5,-201.5"/>
<text text-anchor="middle" x="157.5" y="-231.7" font-family="Times New Roman,serif" font-size="14.00">?</text>
<polyline fill="none" stroke="black" points="119.5,-225.25 195.5,-225.25"/>
<text text-anchor="middle" x="157.5" y="-207.95" font-family="Times New Roman,serif" font-size="14.00">solutions:4</text>
</g>
<!-- _0_0_0&#45;&gt;_1_0_1 -->
<g id="edge1" class="edge">
<title>_0_0_0&#45;&gt;_1_0_1</title>
<path fill="none" stroke="black" d="M75.86,-201.91C86.46,-204.98 98.18,-208.38 109.33,-211.6"/>
<polygon fill="black" stroke="black" points="108.2,-215.21 118.78,-214.62 110.14,-208.48 108.2,-215.21"/>
<text text-anchor="middle" x="97.75" y="-212.7" font-family="Times New Roman,serif" font-size="14.00">#</text>
</g>
<!-- _1_0_0 -->
<g id="node3" class="node">
<title>_1_0_0</title>
<polygon fill="none" stroke="black" points="119.5,-134.5 119.5,-182 195.5,-182 195.5,-134.5 119.5,-134.5"/>
<text text-anchor="middle" x="157.5" y="-164.7" font-family="Times New Roman,serif" font-size="14.00">?</text>
<polyline fill="none" stroke="black" points="119.5,-158.25 195.5,-158.25"/>
<text text-anchor="middle" x="157.5" y="-140.95" font-family="Times New Roman,serif" font-size="14.00">solutions:2</text>
</g>
<!-- _0_0_0&#45;&gt;_1_0_0 -->
<g id="edge2" class="edge">
<title>_0_0_0&#45;&gt;_1_0_0</title>
<path fill="none" stroke="black" d="M75.86,-180.9C86.46,-177.92 98.18,-174.63 109.33,-171.5"/>
<polygon fill="black" stroke="black" points="110.09,-174.64 118.78,-168.56 108.2,-167.9 110.09,-174.64"/>
<text text-anchor="middle" x="97.75" y="-178.7" font-family="Times New Roman,serif" font-size="14.00">.</text>
</g>
<!-- _2_1_0 -->
<g id="node6" class="node">
<title>_2_1_0</title>
<polygon fill="none" stroke="black" points="239,-201.5 239,-249 315,-249 315,-201.5 239,-201.5"/>
<text text-anchor="middle" x="277" y="-231.7" font-family="Times New Roman,serif" font-size="14.00">#</text>
<polyline fill="none" stroke="black" points="239,-225.25 315,-225.25"/>
<text text-anchor="middle" x="277" y="-207.95" font-family="Times New Roman,serif" font-size="14.00">solutions:4</text>
</g>
<!-- _1_0_1&#45;&gt;_2_1_0 -->
<g id="edge5" class="edge">
<title>_1_0_1&#45;&gt;_2_1_0</title>
<path fill="none" stroke="black" d="M195.36,-225.25C205.85,-225.25 217.44,-225.25 228.48,-225.25"/>
<polygon fill="black" stroke="black" points="228.28,-228.75 238.28,-225.25 228.28,-221.75 228.28,-228.75"/>
<text text-anchor="middle" x="217.25" y="-227.7" font-family="Times New Roman,serif" font-size="14.00">.</text>
</g>
<!-- _2_0_1 -->
<g id="node4" class="node">
<title>_2_0_1</title>
<polygon fill="none" stroke="red" points="239,-134.5 239,-182 315,-182 315,-134.5 239,-134.5"/>
<text text-anchor="middle" x="277" y="-164.7" font-family="Times New Roman,serif" font-size="14.00">?</text>
<polyline fill="none" stroke="red" points="239,-158.25 315,-158.25"/>
<text text-anchor="middle" x="277" y="-140.95" font-family="Times New Roman,serif" font-size="14.00">solutions:0</text>
</g>
<!-- _1_0_0&#45;&gt;_2_0_1 -->
<g id="edge3" class="edge">
<title>_1_0_0&#45;&gt;_2_0_1</title>
<path fill="none" stroke="black" d="M195.36,-158.25C205.85,-158.25 217.44,-158.25 228.48,-158.25"/>
<polygon fill="black" stroke="black" points="228.28,-161.75 238.28,-158.25 228.28,-154.75 228.28,-161.75"/>
<text text-anchor="middle" x="217.25" y="-160.7" font-family="Times New Roman,serif" font-size="14.00">#</text>
</g>
<!-- _2_0_0 -->
<g id="node5" class="node">
<title>_2_0_0</title>
<polygon fill="none" stroke="black" points="239,-67.5 239,-115 315,-115 315,-67.5 239,-67.5"/>
<text text-anchor="middle" x="277" y="-97.7" font-family="Times New Roman,serif" font-size="14.00">#</text>
<polyline fill="none" stroke="black" points="239,-91.25 315,-91.25"/>
<text text-anchor="middle" x="277" y="-73.95" font-family="Times New Roman,serif" font-size="14.00">solutions:2</text>
</g>
<!-- _1_0_0&#45;&gt;_2_0_0 -->
<g id="edge4" class="edge">
<title>_1_0_0&#45;&gt;_2_0_0</title>
<path fill="none" stroke="black" d="M195.36,-137.23C206.29,-131 218.41,-124.09 229.86,-117.56"/>
<polygon fill="black" stroke="black" points="231.32,-120.18 238.28,-112.19 227.85,-114.1 231.32,-120.18"/>
<text text-anchor="middle" x="217.25" y="-129.7" font-family="Times New Roman,serif" font-size="14.00">.</text>
</g>
<!-- _3_0_1 -->
<g id="node7" class="node">
<title>_3_0_1</title>
<polygon fill="none" stroke="black" points="358.5,-67.5 358.5,-115 434.5,-115 434.5,-67.5 358.5,-67.5"/>
<text text-anchor="middle" x="396.5" y="-97.7" font-family="Times New Roman,serif" font-size="14.00">?</text>
<polyline fill="none" stroke="black" points="358.5,-91.25 434.5,-91.25"/>
<text text-anchor="middle" x="396.5" y="-73.95" font-family="Times New Roman,serif" font-size="14.00">solutions:2</text>
</g>
<!-- _2_0_0&#45;&gt;_3_0_1 -->
<g id="edge6" class="edge">
<title>_2_0_0&#45;&gt;_3_0_1</title>
<path fill="none" stroke="black" d="M314.86,-91.25C325.35,-91.25 336.94,-91.25 347.98,-91.25"/>
<polygon fill="black" stroke="black" points="347.78,-94.75 357.78,-91.25 347.78,-87.75 347.78,-94.75"/>
<text text-anchor="middle" x="336.75" y="-93.7" font-family="Times New Roman,serif" font-size="14.00">#</text>
</g>
<!-- _3_1_1 -->
<g id="node8" class="node">
<title>_3_1_1</title>
<polygon fill="none" stroke="black" points="358.5,-201.5 358.5,-249 434.5,-249 434.5,-201.5 358.5,-201.5"/>
<text text-anchor="middle" x="396.5" y="-231.7" font-family="Times New Roman,serif" font-size="14.00">?</text>
<polyline fill="none" stroke="black" points="358.5,-225.25 434.5,-225.25"/>
<text text-anchor="middle" x="396.5" y="-207.95" font-family="Times New Roman,serif" font-size="14.00">solutions:4</text>
</g>
<!-- _2_1_0&#45;&gt;_3_1_1 -->
<g id="edge7" class="edge">
<title>_2_1_0&#45;&gt;_3_1_1</title>
<path fill="none" stroke="black" d="M314.86,-225.25C325.35,-225.25 336.94,-225.25 347.98,-225.25"/>
<polygon fill="black" stroke="black" points="347.78,-228.75 357.78,-225.25 347.78,-221.75 347.78,-228.75"/>
<text text-anchor="middle" x="336.75" y="-227.7" font-family="Times New Roman,serif" font-size="14.00">#</text>
</g>
<!-- _4_1_0 -->
<g id="node9" class="node">
<title>_4_1_0</title>
<polygon fill="none" stroke="black" points="478,-67.5 478,-115 554,-115 554,-67.5 478,-67.5"/>
<text text-anchor="middle" x="516" y="-97.7" font-family="Times New Roman,serif" font-size="14.00">#</text>
<polyline fill="none" stroke="black" points="478,-91.25 554,-91.25"/>
<text text-anchor="middle" x="516" y="-73.95" font-family="Times New Roman,serif" font-size="14.00">solutions:2</text>
</g>
<!-- _3_0_1&#45;&gt;_4_1_0 -->
<g id="edge8" class="edge">
<title>_3_0_1&#45;&gt;_4_1_0</title>
<path fill="none" stroke="black" d="M434.36,-91.25C444.85,-91.25 456.44,-91.25 467.48,-91.25"/>
<polygon fill="black" stroke="black" points="467.28,-94.75 477.28,-91.25 467.28,-87.75 467.28,-94.75"/>
<text text-anchor="middle" x="456.25" y="-93.7" font-family="Times New Roman,serif" font-size="14.00">.</text>
</g>
<!-- _4_1_2 -->
<g id="node10" class="node">
<title>_4_1_2</title>
<polygon fill="none" stroke="black" points="478,-201.5 478,-249 554,-249 554,-201.5 478,-201.5"/>
<text text-anchor="middle" x="516" y="-231.7" font-family="Times New Roman,serif" font-size="14.00">#</text>
<polyline fill="none" stroke="black" points="478,-225.25 554,-225.25"/>
<text text-anchor="middle" x="516" y="-207.95" font-family="Times New Roman,serif" font-size="14.00">solutions:4</text>
</g>
<!-- _3_1_1&#45;&gt;_4_1_2 -->
<g id="edge9" class="edge">
<title>_3_1_1&#45;&gt;_4_1_2</title>
<path fill="none" stroke="black" d="M434.36,-225.25C444.85,-225.25 456.44,-225.25 467.48,-225.25"/>
<polygon fill="black" stroke="black" points="467.28,-228.75 477.28,-225.25 467.28,-221.75 467.28,-228.75"/>
<text text-anchor="middle" x="456.25" y="-227.7" font-family="Times New Roman,serif" font-size="14.00">#</text>
</g>
<!-- _5_1_1 -->
<g id="node11" class="node">
<title>_5_1_1</title>
<polygon fill="none" stroke="black" points="597.5,-67.5 597.5,-115 673.5,-115 673.5,-67.5 597.5,-67.5"/>
<text text-anchor="middle" x="635.5" y="-97.7" font-family="Times New Roman,serif" font-size="14.00">#</text>
<polyline fill="none" stroke="black" points="597.5,-91.25 673.5,-91.25"/>
<text text-anchor="middle" x="635.5" y="-73.95" font-family="Times New Roman,serif" font-size="14.00">solutions:2</text>
</g>
<!-- _4_1_0&#45;&gt;_5_1_1 -->
<g id="edge10" class="edge">
<title>_4_1_0&#45;&gt;_5_1_1</title>
<path fill="none" stroke="black" d="M553.86,-91.25C564.35,-91.25 575.94,-91.25 586.98,-91.25"/>
<polygon fill="black" stroke="black" points="586.78,-94.75 596.78,-91.25 586.78,-87.75 586.78,-94.75"/>
<text text-anchor="middle" x="575.75" y="-93.7" font-family="Times New Roman,serif" font-size="14.00">#</text>
</g>
<!-- _5_1_3 -->
<g id="node12" class="node">
<title>_5_1_3</title>
<polygon fill="none" stroke="black" points="597.5,-201.5 597.5,-249 673.5,-249 673.5,-201.5 597.5,-201.5"/>
<text text-anchor="middle" x="635.5" y="-231.7" font-family="Times New Roman,serif" font-size="14.00">#</text>
<polyline fill="none" stroke="black" points="597.5,-225.25 673.5,-225.25"/>
<text text-anchor="middle" x="635.5" y="-207.95" font-family="Times New Roman,serif" font-size="14.00">solutions:4</text>
</g>
<!-- _4_1_2&#45;&gt;_5_1_3 -->
<g id="edge11" class="edge">
<title>_4_1_2&#45;&gt;_5_1_3</title>
<path fill="none" stroke="black" d="M553.86,-225.25C564.35,-225.25 575.94,-225.25 586.98,-225.25"/>
<polygon fill="black" stroke="black" points="586.78,-228.75 596.78,-225.25 586.78,-221.75 586.78,-228.75"/>
<text text-anchor="middle" x="575.75" y="-227.7" font-family="Times New Roman,serif" font-size="14.00">#</text>
</g>
<!-- _6_1_2 -->
<g id="node13" class="node">
<title>_6_1_2</title>
<polygon fill="none" stroke="black" points="717,-67.5 717,-115 793,-115 793,-67.5 717,-67.5"/>
<text text-anchor="middle" x="755" y="-97.7" font-family="Times New Roman,serif" font-size="14.00">#</text>
<polyline fill="none" stroke="black" points="717,-91.25 793,-91.25"/>
<text text-anchor="middle" x="755" y="-73.95" font-family="Times New Roman,serif" font-size="14.00">solutions:2</text>
</g>
<!-- _5_1_1&#45;&gt;_6_1_2 -->
<g id="edge12" class="edge">
<title>_5_1_1&#45;&gt;_6_1_2</title>
<path fill="none" stroke="black" d="M673.36,-91.25C683.85,-91.25 695.44,-91.25 706.48,-91.25"/>
<polygon fill="black" stroke="black" points="706.28,-94.75 716.28,-91.25 706.28,-87.75 706.28,-94.75"/>
<text text-anchor="middle" x="695.25" y="-93.7" font-family="Times New Roman,serif" font-size="14.00">#</text>
</g>
<!-- _6_1_4 -->
<g id="node14" class="node">
<title>_6_1_4</title>
<polygon fill="none" stroke="black" points="717,-201.5 717,-249 793,-249 793,-201.5 717,-201.5"/>
<text text-anchor="middle" x="755" y="-231.7" font-family="Times New Roman,serif" font-size="14.00">#</text>
<polyline fill="none" stroke="black" points="717,-225.25 793,-225.25"/>
<text text-anchor="middle" x="755" y="-207.95" font-family="Times New Roman,serif" font-size="14.00">solutions:4</text>
</g>
<!-- _5_1_3&#45;&gt;_6_1_4 -->
<g id="edge13" class="edge">
<title>_5_1_3&#45;&gt;_6_1_4</title>
<path fill="none" stroke="black" d="M673.36,-225.25C683.85,-225.25 695.44,-225.25 706.48,-225.25"/>
<polygon fill="black" stroke="black" points="706.28,-228.75 716.28,-225.25 706.28,-221.75 706.28,-228.75"/>
<text text-anchor="middle" x="695.25" y="-227.7" font-family="Times New Roman,serif" font-size="14.00">#</text>
</g>
<!-- _7_1_3 -->
<g id="node15" class="node">
<title>_7_1_3</title>
<polygon fill="none" stroke="black" points="836.5,-67.5 836.5,-115 912.5,-115 912.5,-67.5 836.5,-67.5"/>
<text text-anchor="middle" x="874.5" y="-97.7" font-family="Times New Roman,serif" font-size="14.00">?</text>
<polyline fill="none" stroke="black" points="836.5,-91.25 912.5,-91.25"/>
<text text-anchor="middle" x="874.5" y="-73.95" font-family="Times New Roman,serif" font-size="14.00">solutions:2</text>
</g>
<!-- _6_1_2&#45;&gt;_7_1_3 -->
<g id="edge14" class="edge">
<title>_6_1_2&#45;&gt;_7_1_3</title>
<path fill="none" stroke="black" d="M792.86,-91.25C803.35,-91.25 814.94,-91.25 825.98,-91.25"/>
<polygon fill="black" stroke="black" points="825.78,-94.75 835.78,-91.25 825.78,-87.75 825.78,-94.75"/>
<text text-anchor="middle" x="814.75" y="-93.7" font-family="Times New Roman,serif" font-size="14.00">#</text>
</g>
<!-- _7_1_5 -->
<g id="node16" class="node">
<title>_7_1_5</title>
<polygon fill="none" stroke="black" points="836.5,-201.5 836.5,-249 912.5,-249 912.5,-201.5 836.5,-201.5"/>
<text text-anchor="middle" x="874.5" y="-231.7" font-family="Times New Roman,serif" font-size="14.00">?</text>
<polyline fill="none" stroke="black" points="836.5,-225.25 912.5,-225.25"/>
<text text-anchor="middle" x="874.5" y="-207.95" font-family="Times New Roman,serif" font-size="14.00">solutions:4</text>
</g>
<!-- _6_1_4&#45;&gt;_7_1_5 -->
<g id="edge15" class="edge">
<title>_6_1_4&#45;&gt;_7_1_5</title>
<path fill="none" stroke="black" d="M792.86,-225.25C803.35,-225.25 814.94,-225.25 825.98,-225.25"/>
<polygon fill="black" stroke="black" points="825.78,-228.75 835.78,-225.25 825.78,-221.75 825.78,-228.75"/>
<text text-anchor="middle" x="814.75" y="-227.7" font-family="Times New Roman,serif" font-size="14.00">#</text>
</g>
<!-- _8_1_4 -->
<g id="node17" class="node">
<title>_8_1_4</title>
<polygon fill="none" stroke="black" points="956,-67.5 956,-115 1032,-115 1032,-67.5 956,-67.5"/>
<text text-anchor="middle" x="994" y="-97.7" font-family="Times New Roman,serif" font-size="14.00">?</text>
<polyline fill="none" stroke="black" points="956,-91.25 1032,-91.25"/>
<text text-anchor="middle" x="994" y="-73.95" font-family="Times New Roman,serif" font-size="14.00">solutions:2</text>
</g>
<!-- _7_1_3&#45;&gt;_8_1_4 -->
<g id="edge16" class="edge">
<title>_7_1_3&#45;&gt;_8_1_4</title>
<path fill="none" stroke="black" d="M912.36,-91.25C922.85,-91.25 934.44,-91.25 945.48,-91.25"/>
<polygon fill="black" stroke="black" points="945.28,-94.75 955.28,-91.25 945.28,-87.75 945.28,-94.75"/>
<text text-anchor="middle" x="934.25" y="-93.7" font-family="Times New Roman,serif" font-size="14.00">#</text>
</g>
<!-- _8_2_0 -->
<g id="node18" class="node">
<title>_8_2_0</title>
<polygon fill="none" stroke="black" points="956,-201.5 956,-249 1032,-249 1032,-201.5 956,-201.5"/>
<text text-anchor="middle" x="994" y="-231.7" font-family="Times New Roman,serif" font-size="14.00">?</text>
<polyline fill="none" stroke="black" points="956,-225.25 1032,-225.25"/>
<text text-anchor="middle" x="994" y="-207.95" font-family="Times New Roman,serif" font-size="14.00">solutions:4</text>
</g>
<!-- _7_1_5&#45;&gt;_8_2_0 -->
<g id="edge17" class="edge">
<title>_7_1_5&#45;&gt;_8_2_0</title>
<path fill="none" stroke="black" d="M912.36,-225.25C922.85,-225.25 934.44,-225.25 945.48,-225.25"/>
<polygon fill="black" stroke="black" points="945.28,-228.75 955.28,-225.25 945.28,-221.75 945.28,-228.75"/>
<text text-anchor="middle" x="934.25" y="-227.7" font-family="Times New Roman,serif" font-size="14.00">.</text>
</g>
<!-- _9_1_5 -->
<g id="node19" class="node">
<title>_9_1_5</title>
<polygon fill="none" stroke="black" points="1075.5,-67.5 1075.5,-115 1151.5,-115 1151.5,-67.5 1075.5,-67.5"/>
<text text-anchor="middle" x="1113.5" y="-97.7" font-family="Times New Roman,serif" font-size="14.00">?</text>
<polyline fill="none" stroke="black" points="1075.5,-91.25 1151.5,-91.25"/>
<text text-anchor="middle" x="1113.5" y="-73.95" font-family="Times New Roman,serif" font-size="14.00">solutions:2</text>
</g>
<!-- _8_1_4&#45;&gt;_9_1_5 -->
<g id="edge18" class="edge">
<title>_8_1_4&#45;&gt;_9_1_5</title>
<path fill="none" stroke="black" d="M1031.86,-91.25C1042.35,-91.25 1053.94,-91.25 1064.98,-91.25"/>
<polygon fill="black" stroke="black" points="1064.78,-94.75 1074.78,-91.25 1064.78,-87.75 1064.78,-94.75"/>
<text text-anchor="middle" x="1053.75" y="-93.7" font-family="Times New Roman,serif" font-size="14.00">#</text>
</g>
<!-- _9_2_1 -->
<g id="node20" class="node">
<title>_9_2_1</title>
<polygon fill="none" stroke="black" points="1075.5,-212.5 1075.5,-260 1151.5,-260 1151.5,-212.5 1075.5,-212.5"/>
<text text-anchor="middle" x="1113.5" y="-242.7" font-family="Times New Roman,serif" font-size="14.00">?</text>
<polyline fill="none" stroke="black" points="1075.5,-236.25 1151.5,-236.25"/>
<text text-anchor="middle" x="1113.5" y="-218.95" font-family="Times New Roman,serif" font-size="14.00">solutions:1</text>
</g>
<!-- _8_2_0&#45;&gt;_9_2_1 -->
<g id="edge19" class="edge">
<title>_8_2_0&#45;&gt;_9_2_1</title>
<path fill="none" stroke="black" d="M1031.86,-228.7C1042.35,-229.68 1053.94,-230.77 1064.98,-231.8"/>
<polygon fill="black" stroke="black" points="1064.49,-235.36 1074.78,-232.81 1065.15,-228.4 1064.49,-235.36"/>
<text text-anchor="middle" x="1053.75" y="-233.7" font-family="Times New Roman,serif" font-size="14.00">#</text>
</g>
<!-- _9_2_0 -->
<g id="node21" class="node">
<title>_9_2_0</title>
<polygon fill="none" stroke="black" points="1075.5,-145.5 1075.5,-193 1151.5,-193 1151.5,-145.5 1075.5,-145.5"/>
<text text-anchor="middle" x="1113.5" y="-175.7" font-family="Times New Roman,serif" font-size="14.00">?</text>
<polyline fill="none" stroke="black" points="1075.5,-169.25 1151.5,-169.25"/>
<text text-anchor="middle" x="1113.5" y="-151.95" font-family="Times New Roman,serif" font-size="14.00">solutions:3</text>
</g>
<!-- _8_2_0&#45;&gt;_9_2_0 -->
<g id="edge20" class="edge">
<title>_8_2_0&#45;&gt;_9_2_0</title>
<path fill="none" stroke="black" d="M1031.86,-207.68C1042.68,-202.52 1054.67,-196.81 1066.01,-191.41"/>
<polygon fill="black" stroke="black" points="1067.25,-194.21 1074.78,-186.75 1064.24,-187.9 1067.25,-194.21"/>
<text text-anchor="middle" x="1053.75" y="-201.7" font-family="Times New Roman,serif" font-size="14.00">.</text>
</g>
<!-- _10_2_0 -->
<g id="node22" class="node">
<title>_10_2_0</title>
<polygon fill="none" stroke="black" points="1195,-67.5 1195,-115 1271,-115 1271,-67.5 1195,-67.5"/>
<text text-anchor="middle" x="1233" y="-97.7" font-family="Times New Roman,serif" font-size="14.00">?</text>
<polyline fill="none" stroke="black" points="1195,-91.25 1271,-91.25"/>
<text text-anchor="middle" x="1233" y="-73.95" font-family="Times New Roman,serif" font-size="14.00">solutions:2</text>
</g>
<!-- _9_1_5&#45;&gt;_10_2_0 -->
<g id="edge21" class="edge">
<title>_9_1_5&#45;&gt;_10_2_0</title>
<path fill="none" stroke="black" d="M1151.36,-91.25C1161.85,-91.25 1173.44,-91.25 1184.48,-91.25"/>
<polygon fill="black" stroke="black" points="1184.28,-94.75 1194.28,-91.25 1184.28,-87.75 1184.28,-94.75"/>
<text text-anchor="middle" x="1173.25" y="-93.7" font-family="Times New Roman,serif" font-size="14.00">.</text>
</g>
<!-- _10_2_2 -->
<g id="node24" class="node">
<title>_10_2_2</title>
<polygon fill="none" stroke="black" points="1195,-212.5 1195,-260 1271,-260 1271,-212.5 1195,-212.5"/>
<text text-anchor="middle" x="1233" y="-242.7" font-family="Times New Roman,serif" font-size="14.00">?</text>
<polyline fill="none" stroke="black" points="1195,-236.25 1271,-236.25"/>
<text text-anchor="middle" x="1233" y="-218.95" font-family="Times New Roman,serif" font-size="14.00">solutions:1</text>
</g>
<!-- _9_2_1&#45;&gt;_10_2_2 -->
<g id="edge24" class="edge">
<title>_9_2_1&#45;&gt;_10_2_2</title>
<path fill="none" stroke="black" d="M1151.36,-236.25C1161.85,-236.25 1173.44,-236.25 1184.48,-236.25"/>
<polygon fill="black" stroke="black" points="1184.28,-239.75 1194.28,-236.25 1184.28,-232.75 1184.28,-239.75"/>
<text text-anchor="middle" x="1173.25" y="-238.7" font-family="Times New Roman,serif" font-size="14.00">#</text>
</g>
<!-- _9_2_0&#45;&gt;_10_2_0 -->
<g id="edge23" class="edge">
<title>_9_2_0&#45;&gt;_10_2_0</title>
<path fill="none" stroke="black" d="M1150.07,-145.64C1161.92,-137.77 1175.27,-128.91 1187.7,-120.66"/>
<polygon fill="black" stroke="black" points="1189.15,-123.23 1195.55,-114.78 1185.28,-117.4 1189.15,-123.23"/>
<text text-anchor="middle" x="1173.25" y="-135.7" font-family="Times New Roman,serif" font-size="14.00">.</text>
</g>
<!-- _10_2_1 -->
<g id="node23" class="node">
<title>_10_2_1</title>
<polygon fill="none" stroke="black" points="1195,-145.5 1195,-193 1271,-193 1271,-145.5 1195,-145.5"/>
<text text-anchor="middle" x="1233" y="-175.7" font-family="Times New Roman,serif" font-size="14.00">?</text>
<polyline fill="none" stroke="black" points="1195,-169.25 1271,-169.25"/>
<text text-anchor="middle" x="1233" y="-151.95" font-family="Times New Roman,serif" font-size="14.00">solutions:1</text>
</g>
<!-- _9_2_0&#45;&gt;_10_2_1 -->
<g id="edge22" class="edge">
<title>_9_2_0&#45;&gt;_10_2_1</title>
<path fill="none" stroke="black" d="M1151.36,-169.25C1161.85,-169.25 1173.44,-169.25 1184.48,-169.25"/>
<polygon fill="black" stroke="black" points="1184.28,-172.75 1194.28,-169.25 1184.28,-165.75 1184.28,-172.75"/>
<text text-anchor="middle" x="1173.25" y="-171.7" font-family="Times New Roman,serif" font-size="14.00">#</text>
</g>
<!-- _11_2_1 -->
<g id="node25" class="node">
<title>_11_2_1</title>
<polygon fill="none" stroke="black" points="1314.5,-0.5 1314.5,-48 1390.5,-48 1390.5,-0.5 1314.5,-0.5"/>
<text text-anchor="middle" x="1352.5" y="-30.7" font-family="Times New Roman,serif" font-size="14.00">?</text>
<polyline fill="none" stroke="black" points="1314.5,-24.25 1390.5,-24.25"/>
<text text-anchor="middle" x="1352.5" y="-6.95" font-family="Times New Roman,serif" font-size="14.00">solutions:1</text>
</g>
<!-- _10_2_0&#45;&gt;_11_2_1 -->
<g id="edge25" class="edge">
<title>_10_2_0&#45;&gt;_11_2_1</title>
<path fill="none" stroke="black" d="M1270.86,-70.23C1281.79,-64 1293.91,-57.09 1305.36,-50.56"/>
<polygon fill="black" stroke="black" points="1306.82,-53.18 1313.78,-45.19 1303.35,-47.1 1306.82,-53.18"/>
<text text-anchor="middle" x="1292.75" y="-62.7" font-family="Times New Roman,serif" font-size="14.00">#</text>
</g>
<!-- _11_2_0 -->
<g id="node26" class="node">
<title>_11_2_0</title>
<polygon fill="none" stroke="black" points="1314.5,-67.5 1314.5,-115 1390.5,-115 1390.5,-67.5 1314.5,-67.5"/>
<text text-anchor="middle" x="1352.5" y="-97.7" font-family="Times New Roman,serif" font-size="14.00">?</text>
<polyline fill="none" stroke="black" points="1314.5,-91.25 1390.5,-91.25"/>
<text text-anchor="middle" x="1352.5" y="-73.95" font-family="Times New Roman,serif" font-size="14.00">solutions:1</text>
</g>
<!-- _10_2_0&#45;&gt;_11_2_0 -->
<g id="edge26" class="edge">
<title>_10_2_0&#45;&gt;_11_2_0</title>
<path fill="none" stroke="black" d="M1270.86,-91.25C1281.35,-91.25 1292.94,-91.25 1303.98,-91.25"/>
<polygon fill="black" stroke="black" points="1303.78,-94.75 1313.78,-91.25 1303.78,-87.75 1303.78,-94.75"/>
<text text-anchor="middle" x="1292.75" y="-93.7" font-family="Times New Roman,serif" font-size="14.00">.</text>
</g>
<!-- _11_2_2 -->
<g id="node27" class="node">
<title>_11_2_2</title>
<polygon fill="none" stroke="black" points="1314.5,-145.5 1314.5,-193 1390.5,-193 1390.5,-145.5 1314.5,-145.5"/>
<text text-anchor="middle" x="1352.5" y="-175.7" font-family="Times New Roman,serif" font-size="14.00">?</text>
<polyline fill="none" stroke="black" points="1314.5,-169.25 1390.5,-169.25"/>
<text text-anchor="middle" x="1352.5" y="-151.95" font-family="Times New Roman,serif" font-size="14.00">solutions:1</text>
</g>
<!-- _10_2_1&#45;&gt;_11_2_2 -->
<g id="edge27" class="edge">
<title>_10_2_1&#45;&gt;_11_2_2</title>
<path fill="none" stroke="black" d="M1270.86,-169.25C1281.35,-169.25 1292.94,-169.25 1303.98,-169.25"/>
<polygon fill="black" stroke="black" points="1303.78,-172.75 1313.78,-169.25 1303.78,-165.75 1303.78,-172.75"/>
<text text-anchor="middle" x="1292.75" y="-171.7" font-family="Times New Roman,serif" font-size="14.00">#</text>
</g>
<!-- _11_3_0 -->
<g id="node28" class="node">
<title>_11_3_0</title>
<polygon fill="none" stroke="black" points="1314.5,-212.5 1314.5,-260 1390.5,-260 1390.5,-212.5 1314.5,-212.5"/>
<text text-anchor="middle" x="1352.5" y="-242.7" font-family="Times New Roman,serif" font-size="14.00">?</text>
<polyline fill="none" stroke="black" points="1314.5,-236.25 1390.5,-236.25"/>
<text text-anchor="middle" x="1352.5" y="-218.95" font-family="Times New Roman,serif" font-size="14.00">solutions:1</text>
</g>
<!-- _10_2_2&#45;&gt;_11_3_0 -->
<g id="edge28" class="edge">
<title>_10_2_2&#45;&gt;_11_3_0</title>
<path fill="none" stroke="black" d="M1270.86,-236.25C1281.35,-236.25 1292.94,-236.25 1303.98,-236.25"/>
<polygon fill="black" stroke="black" points="1303.78,-239.75 1313.78,-236.25 1303.78,-232.75 1303.78,-239.75"/>
<text text-anchor="middle" x="1292.75" y="-238.7" font-family="Times New Roman,serif" font-size="14.00">.</text>
</g>
<!-- _12_2_2 -->
<g id="node31" class="node">
<title>_12_2_2</title>
<polygon fill="none" stroke="black" points="1434,-0.5 1434,-48 1510,-48 1510,-0.5 1434,-0.5"/>
<text text-anchor="middle" x="1472" y="-30.7" font-family="Times New Roman,serif" font-size="14.00">?</text>
<polyline fill="none" stroke="black" points="1434,-24.25 1510,-24.25"/>
<text text-anchor="middle" x="1472" y="-6.95" font-family="Times New Roman,serif" font-size="14.00">solutions:1</text>
</g>
<!-- _11_2_1&#45;&gt;_12_2_2 -->
<g id="edge31" class="edge">
<title>_11_2_1&#45;&gt;_12_2_2</title>
<path fill="none" stroke="black" d="M1390.36,-24.25C1400.85,-24.25 1412.44,-24.25 1423.48,-24.25"/>
<polygon fill="black" stroke="black" points="1423.28,-27.75 1433.28,-24.25 1423.28,-20.75 1423.28,-27.75"/>
<text text-anchor="middle" x="1412.25" y="-26.7" font-family="Times New Roman,serif" font-size="14.00">#</text>
</g>
<!-- _12_2_1 -->
<g id="node29" class="node">
<title>_12_2_1</title>
<polygon fill="none" stroke="black" points="1434,-67.5 1434,-115 1510,-115 1510,-67.5 1434,-67.5"/>
<text text-anchor="middle" x="1472" y="-97.7" font-family="Times New Roman,serif" font-size="14.00">?</text>
<polyline fill="none" stroke="black" points="1434,-91.25 1510,-91.25"/>
<text text-anchor="middle" x="1472" y="-73.95" font-family="Times New Roman,serif" font-size="14.00">solutions:1</text>
</g>
<!-- _11_2_0&#45;&gt;_12_2_1 -->
<g id="edge29" class="edge">
<title>_11_2_0&#45;&gt;_12_2_1</title>
<path fill="none" stroke="black" d="M1390.36,-91.25C1400.85,-91.25 1412.44,-91.25 1423.48,-91.25"/>
<polygon fill="black" stroke="black" points="1423.28,-94.75 1433.28,-91.25 1423.28,-87.75 1423.28,-94.75"/>
<text text-anchor="middle" x="1412.25" y="-93.7" font-family="Times New Roman,serif" font-size="14.00">#</text>
</g>
<!-- _12_2_0 -->
<g id="node30" class="node">
<title>_12_2_0</title>
<polygon fill="none" stroke="red" points="1434,-134.5 1434,-182 1510,-182 1510,-134.5 1434,-134.5"/>
<text text-anchor="middle" x="1472" y="-164.7" font-family="Times New Roman,serif" font-size="14.00">?</text>
<polyline fill="none" stroke="red" points="1434,-158.25 1510,-158.25"/>
<text text-anchor="middle" x="1472" y="-140.95" font-family="Times New Roman,serif" font-size="14.00">solutions:0</text>
</g>
<!-- _11_2_0&#45;&gt;_12_2_0 -->
<g id="edge30" class="edge">
<title>_11_2_0&#45;&gt;_12_2_0</title>
<path fill="none" stroke="black" d="M1390.36,-112.27C1401.29,-118.5 1413.41,-125.41 1424.86,-131.94"/>
<polygon fill="black" stroke="black" points="1422.85,-135.4 1433.28,-137.31 1426.32,-129.32 1422.85,-135.4"/>
<text text-anchor="middle" x="1412.25" y="-129.7" font-family="Times New Roman,serif" font-size="14.00">.</text>
</g>
<!-- _12_3_0 -->
<g id="node32" class="node">
<title>_12_3_0</title>
<polygon fill="none" stroke="black" points="1434,-201.5 1434,-249 1510,-249 1510,-201.5 1434,-201.5"/>
<text text-anchor="middle" x="1472" y="-231.7" font-family="Times New Roman,serif" font-size="14.00">?</text>
<polyline fill="none" stroke="black" points="1434,-225.25 1510,-225.25"/>
<text text-anchor="middle" x="1472" y="-207.95" font-family="Times New Roman,serif" font-size="14.00">solutions:1</text>
</g>
<!-- _11_2_2&#45;&gt;_12_3_0 -->
<g id="edge32" class="edge">
<title>_11_2_2&#45;&gt;_12_3_0</title>
<path fill="none" stroke="black" d="M1390.36,-186.82C1401.18,-191.98 1413.17,-197.69 1424.51,-203.09"/>
<polygon fill="black" stroke="black" points="1422.74,-206.6 1433.28,-207.75 1425.75,-200.29 1422.74,-206.6"/>
<text text-anchor="middle" x="1412.25" y="-201.7" font-family="Times New Roman,serif" font-size="14.00">.</text>
</g>
<!-- _11_3_0&#45;&gt;_12_3_0 -->
<g id="edge33" class="edge">
<title>_11_3_0&#45;&gt;_12_3_0</title>
<path fill="none" stroke="black" d="M1390.36,-232.8C1400.85,-231.82 1412.44,-230.73 1423.48,-229.7"/>
<polygon fill="black" stroke="black" points="1423.65,-233.1 1433.28,-228.69 1422.99,-226.14 1423.65,-233.1"/>
<text text-anchor="middle" x="1412.25" y="-233.7" font-family="Times New Roman,serif" font-size="14.00">.</text>
</g>
<!-- _13_2_2 -->
<g id="node33" class="node">
<title>_13_2_2</title>
<polygon fill="none" stroke="black" points="1553.5,-67.5 1553.5,-115 1629.5,-115 1629.5,-67.5 1553.5,-67.5"/>
<text text-anchor="middle" x="1591.5" y="-97.7" font-family="Times New Roman,serif" font-size="14.00">.</text>
<polyline fill="none" stroke="black" points="1553.5,-91.25 1629.5,-91.25"/>
<text text-anchor="middle" x="1591.5" y="-73.95" font-family="Times New Roman,serif" font-size="14.00">solutions:1</text>
</g>
<!-- _12_2_1&#45;&gt;_13_2_2 -->
<g id="edge34" class="edge">
<title>_12_2_1&#45;&gt;_13_2_2</title>
<path fill="none" stroke="black" d="M1509.86,-91.25C1520.35,-91.25 1531.94,-91.25 1542.98,-91.25"/>
<polygon fill="black" stroke="black" points="1542.78,-94.75 1552.78,-91.25 1542.78,-87.75 1542.78,-94.75"/>
<text text-anchor="middle" x="1531.75" y="-93.7" font-family="Times New Roman,serif" font-size="14.00">#</text>
</g>
<!-- _13_3_0 -->
<g id="node34" class="node">
<title>_13_3_0</title>
<polygon fill="none" stroke="black" points="1553.5,-0.5 1553.5,-48 1629.5,-48 1629.5,-0.5 1553.5,-0.5"/>
<text text-anchor="middle" x="1591.5" y="-30.7" font-family="Times New Roman,serif" font-size="14.00">.</text>
<polyline fill="none" stroke="black" points="1553.5,-24.25 1629.5,-24.25"/>
<text text-anchor="middle" x="1591.5" y="-6.95" font-family="Times New Roman,serif" font-size="14.00">solutions:1</text>
</g>
<!-- _12_2_2&#45;&gt;_13_3_0 -->
<g id="edge35" class="edge">
<title>_12_2_2&#45;&gt;_13_3_0</title>
<path fill="none" stroke="black" d="M1509.86,-24.25C1520.35,-24.25 1531.94,-24.25 1542.98,-24.25"/>
<polygon fill="black" stroke="black" points="1542.78,-27.75 1552.78,-24.25 1542.78,-20.75 1542.78,-27.75"/>
<text text-anchor="middle" x="1531.75" y="-26.7" font-family="Times New Roman,serif" font-size="14.00">.</text>
</g>
<!-- _12_3_0&#45;&gt;_13_3_0 -->
<g id="edge36" class="edge">
<title>_12_3_0&#45;&gt;_13_3_0</title>
<path fill="none" stroke="black" d="M1501.73,-201.76C1504.79,-198.45 1507.64,-194.92 1510,-191.25 1518.41,-178.18 1545.09,-71.32 1553.5,-58.25 1553.94,-57.56 1554.4,-56.88 1554.88,-56.2"/>
<polygon fill="black" stroke="black" points="1558.17,-58.7 1561.77,-48.74 1552.74,-54.28 1558.17,-58.7"/>
<text text-anchor="middle" x="1531.75" y="-138.7" font-family="Times New Roman,serif" font-size="14.00">.</text>
</g>
<!-- _14_3_0 -->
<g id="node35" class="node">
<title>_14_3_0</title>
<polygon fill="none" stroke="black" points="1669.25,-33.5 1669.25,-81 1745.25,-81 1745.25,-33.5 1669.25,-33.5"/>
<text text-anchor="middle" x="1707.25" y="-63.7" font-family="Times New Roman,serif" font-size="14.00">X</text>
<polyline fill="none" stroke="black" points="1669.25,-57.25 1745.25,-57.25"/>
<text text-anchor="middle" x="1707.25" y="-39.95" font-family="Times New Roman,serif" font-size="14.00">solutions:1</text>
</g>
<!-- _13_2_2&#45;&gt;_14_3_0 -->
<g id="edge37" class="edge">
<title>_13_2_2&#45;&gt;_14_3_0</title>
<path fill="none" stroke="black" d="M1629.43,-80.21C1638.86,-77.39 1649.13,-74.32 1659.01,-71.37"/>
<polygon fill="black" stroke="black" points="1659.93,-74.45 1668.5,-68.23 1657.92,-67.74 1659.93,-74.45"/>
<text text-anchor="middle" x="1649.38" y="-76.7" font-family="Times New Roman,serif" font-size="14.00">.</text>
</g>
<!-- _13_3_0&#45;&gt;_14_3_0 -->
<g id="edge38" class="edge">
<title>_13_3_0&#45;&gt;_14_3_0</title>
<path fill="none" stroke="black" d="M1629.43,-34.96C1638.86,-37.7 1649.13,-40.68 1659.01,-43.54"/>
<polygon fill="black" stroke="black" points="1657.92,-47.16 1668.5,-46.59 1659.88,-40.44 1657.92,-47.16"/>
<text text-anchor="middle" x="1649.38" y="-43.7" font-family="Times New Roman,serif" font-size="14.00">.</text>
</g>
</g>
</svg>
