<?xml version="1.0" standalone="no"?>
<svg xmlns="http://www.w3.org/2000/svg" xmlns:xlink="http://www.w3.org/1999/xlink" width="1699pt" height="553pt" viewBox="0.00 0.00 1698.59 552.6">
<g id="graph0" class="graph" transform="translate(102.84121209419254,415.79868409361467) scale(0.8364015625699687)" data-name="">
<polygon fill="white" stroke="none" points="-4,4 -4,-548.6 1694.59,-548.6 1694.59,4 -4,4"/>
<!-- _0_0_0 -->
<g id="node1" class="node" pointer-events="visible" data-name="_0_0_0">

<polygon fill="none" stroke="black" points="0,-79.5 0,-129.1 84.46,-129.1 84.46,-79.5 0,-79.5"/>
<text text-anchor="middle" x="42.23" y="-112.5" font-family="Times,serif" font-size="14.00">?</text>
<polyline fill="none" stroke="black" points="0,-104.3 84.46,-104.3"/>
<text text-anchor="middle" x="42.23" y="-87.7" font-family="Times,serif" font-size="14.00">solutions:10</text>
</g>
<!-- _1_0_1 -->
<g id="node2" class="node" pointer-events="visible" data-name="_1_0_1">

<polygon fill="none" stroke="black" points="130.96,-114.5 130.96,-164.1 208.41,-164.1 208.41,-114.5 130.96,-114.5"/>
<text text-anchor="middle" x="169.68" y="-147.5" font-family="Times,serif" font-size="14.00">#</text>
<polyline fill="none" stroke="black" points="130.96,-139.3 208.41,-139.3"/>
<text text-anchor="middle" x="169.68" y="-122.7" font-family="Times,serif" font-size="14.00">solutions:0</text>
</g>
<!-- _0_0_0&#45;&gt;_1_0_1 -->
<g id="edge1" class="edge" data-name="_0_0_0-&gt;_1_0_1">

<path fill="none" stroke="rgb(0, 0, 0)" d="M84.31,-115.76C95.91,-119 108.63,-122.55 120.6,-125.89"/>
<polygon fill="black" stroke="black" points="119.3,-129.16 129.87,-128.47 121.18,-122.41 119.3,-129.16"/>
<text text-anchor="middle" x="105.96" y="-125.5" font-family="Times,serif" font-size="14.00">#</text>
</g>
<!-- _1_0_0 -->
<g id="node3" class="node" pointer-events="visible" data-name="_1_0_0">

<polygon fill="none" stroke="black" points="127.46,-45.5 127.46,-95.1 211.91,-95.1 211.91,-45.5 127.46,-45.5"/>
<text text-anchor="middle" x="169.68" y="-78.5" font-family="Times,serif" font-size="14.00">#</text>
<polyline fill="none" stroke="black" points="127.46,-70.3 211.91,-70.3"/>
<text text-anchor="middle" x="169.68" y="-53.7" font-family="Times,serif" font-size="14.00">solutions:10</text>
</g>
<!-- _0_0_0&#45;&gt;_1_0_0 -->
<g id="edge2" class="edge" data-name="_0_0_0-&gt;_1_0_0">

<path fill="none" stroke="black" d="M84.31,-93.17C94.6,-90.38 105.77,-87.35 116.52,-84.44"/>
<polygon fill="black" stroke="black" points="117.31,-87.85 126.05,-81.85 115.48,-81.09 117.31,-87.85"/>
<text text-anchor="middle" x="105.96" y="-91.5" font-family="Times,serif" font-size="14.00">.</text>
</g>
<!-- _2_0_2 -->
<g id="node5" class="node" pointer-events="visible" data-name="_2_0_2">

<polygon fill="none" stroke="black" points="258.41,-114.5 258.41,-164.1 335.87,-164.1 335.87,-114.5 258.41,-114.5"/>
<text text-anchor="middle" x="297.14" y="-147.5" font-family="Times,serif" font-size="14.00">#</text>
<polyline fill="none" stroke="black" points="258.41,-139.3 335.87,-139.3"/>
<text text-anchor="middle" x="297.14" y="-122.7" font-family="Times,serif" font-size="14.00">solutions:0</text>
</g>
<!-- _1_0_1&#45;&gt;_2_0_2 -->
<g id="edge4" class="edge" data-name="_1_0_1-&gt;_2_0_2">

<path fill="none" stroke="rgb(0, 0, 0)" d="M208.32,-139.3C220.6,-139.3 234.42,-139.3 247.4,-139.3"/>
<polygon fill="black" stroke="black" points="247.01,-142.8 257.01,-139.3 247.01,-135.8 247.01,-142.8"/>
<text text-anchor="middle" x="233.41" y="-143.5" font-family="Times,serif" font-size="14.00">#</text>
</g>
<!-- _2_0_1 -->
<g id="node4" class="node" pointer-events="visible" data-name="_2_0_1">

<polygon fill="none" stroke="black" points="254.91,-45.5 254.91,-95.1 339.37,-95.1 339.37,-45.5 254.91,-45.5"/>
<text text-anchor="middle" x="297.14" y="-78.5" font-family="Times,serif" font-size="14.00">#</text>
<polyline fill="none" stroke="black" points="254.91,-70.3 339.37,-70.3"/>
<text text-anchor="middle" x="297.14" y="-53.7" font-family="Times,serif" font-size="14.00">solutions:10</text>
</g>
<!-- _1_0_0&#45;&gt;_2_0_1 -->
<g id="edge3" class="edge" data-name="_1_0_0-&gt;_2_0_1">

<path fill="none" stroke="black" d="M211.76,-70.3C221.94,-70.3 232.99,-70.3 243.63,-70.3"/>
<polygon fill="black" stroke="black" points="243.45,-73.8 253.45,-70.3 243.45,-66.8 243.45,-73.8"/>
<text text-anchor="middle" x="233.41" y="-74.5" font-family="Times,serif" font-size="14.00">#</text>
</g>
<!-- _3_0_2 -->
<g id="node6" class="node" pointer-events="visible" data-name="_3_0_2">

<polygon fill="none" stroke="black" points="382.37,-45.5 382.37,-95.1 466.82,-95.1 466.82,-45.5 382.37,-45.5"/>
<text text-anchor="middle" x="424.59" y="-78.5" font-family="Times,serif" font-size="14.00">#</text>
<polyline fill="none" stroke="black" points="382.37,-70.3 466.82,-70.3"/>
<text text-anchor="middle" x="424.59" y="-53.7" font-family="Times,serif" font-size="14.00">solutions:10</text>
</g>
<!-- _2_0_1&#45;&gt;_3_0_2 -->
<g id="edge5" class="edge" data-name="_2_0_1-&gt;_3_0_2">

<path fill="none" stroke="black" d="M339.22,-70.3C349.4,-70.3 360.45,-70.3 371.09,-70.3"/>
<polygon fill="black" stroke="black" points="370.91,-73.8 380.91,-70.3 370.91,-66.8 370.91,-73.8"/>
<text text-anchor="middle" x="360.87" y="-74.5" font-family="Times,serif" font-size="14.00">#</text>
</g>
<!-- _3_0_3 -->
<g id="node7" class="node" pointer-events="visible" data-name="_3_0_3">

<polygon fill="none" stroke="black" points="385.87,-114.5 385.87,-164.1 463.32,-164.1 463.32,-114.5 385.87,-114.5"/>
<text text-anchor="middle" x="424.59" y="-147.5" font-family="Times,serif" font-size="14.00">#</text>
<polyline fill="none" stroke="black" points="385.87,-139.3 463.32,-139.3"/>
<text text-anchor="middle" x="424.59" y="-122.7" font-family="Times,serif" font-size="14.00">solutions:0</text>
</g>
<!-- _2_0_2&#45;&gt;_3_0_3 -->
<g id="edge6" class="edge" data-name="_2_0_2-&gt;_3_0_3">

<path fill="none" stroke="rgb(0, 0, 0)" d="M335.78,-139.3C348.06,-139.3 361.88,-139.3 374.85,-139.3"/>
<polygon fill="black" stroke="black" points="374.47,-142.8 384.47,-139.3 374.47,-135.8 374.47,-142.8"/>
<text text-anchor="middle" x="360.87" y="-143.5" font-family="Times,serif" font-size="14.00">#</text>
</g>
<!-- _4_0_3 -->
<g id="node8" class="node" pointer-events="visible" data-name="_4_0_3">

<polygon fill="none" stroke="black" points="509.82,-45.5 509.82,-95.1 594.28,-95.1 594.28,-45.5 509.82,-45.5"/>
<text text-anchor="middle" x="552.05" y="-78.5" font-family="Times,serif" font-size="14.00">?</text>
<polyline fill="none" stroke="black" points="509.82,-70.3 594.28,-70.3"/>
<text text-anchor="middle" x="552.05" y="-53.7" font-family="Times,serif" font-size="14.00">solutions:10</text>
</g>
<!-- _3_0_2&#45;&gt;_4_0_3 -->
<g id="edge7" class="edge" data-name="_3_0_2-&gt;_4_0_3">

<path fill="none" stroke="black" d="M466.67,-70.3C476.85,-70.3 487.9,-70.3 498.55,-70.3"/>
<polygon fill="black" stroke="black" points="498.36,-73.8 508.36,-70.3 498.36,-66.8 498.36,-73.8"/>
<text text-anchor="middle" x="488.32" y="-74.5" font-family="Times,serif" font-size="14.00">#</text>
</g>
<!-- _5_1_0 -->
<g id="node9" class="node" pointer-events="visible" data-name="_5_1_0">

<polygon fill="none" stroke="black" points="633.78,-45.5 633.78,-95.1 718.23,-95.1 718.23,-45.5 633.78,-45.5"/>
<text text-anchor="middle" x="676" y="-78.5" font-family="Times,serif" font-size="14.00">?</text>
<polyline fill="none" stroke="black" points="633.78,-70.3 718.23,-70.3"/>
<text text-anchor="middle" x="676" y="-53.7" font-family="Times,serif" font-size="14.00">solutions:10</text>
</g>
<!-- _4_0_3&#45;&gt;_5_1_0 -->
<g id="edge8" class="edge" data-name="_4_0_3-&gt;_5_1_0">

<path fill="none" stroke="black" d="M594,-70.3C603.15,-70.3 612.97,-70.3 622.52,-70.3"/>
<polygon fill="black" stroke="black" points="622.44,-73.8 632.44,-70.3 622.44,-66.8 622.44,-73.8"/>
<text text-anchor="middle" x="614.03" y="-74.5" font-family="Times,serif" font-size="14.00">.</text>
</g>
<!-- _6_1_1 -->
<g id="node10" class="node" pointer-events="visible" data-name="_6_1_1">

<polygon fill="none" stroke="black" points="761.23,-11.5 761.23,-61.1 838.69,-61.1 838.69,-11.5 761.23,-11.5"/>
<text text-anchor="middle" x="799.96" y="-44.5" font-family="Times,serif" font-size="14.00">?</text>
<polyline fill="none" stroke="black" points="761.23,-36.3 838.69,-36.3"/>
<text text-anchor="middle" x="799.96" y="-19.7" font-family="Times,serif" font-size="14.00">solutions:4</text>
</g>
<!-- _5_1_0&#45;&gt;_6_1_1 -->
<g id="edge9" class="edge" data-name="_5_1_0-&gt;_6_1_1">

<path fill="none" stroke="rgb(0, 0, 0)" d="M717.95,-58.88C728.43,-55.96 739.79,-52.79 750.6,-49.78"/>
<polygon fill="black" stroke="black" points="751.46,-53.18 760.15,-47.12 749.58,-46.43 751.46,-53.18"/>
<text text-anchor="middle" x="739.73" y="-57.5" font-family="Times,serif" font-size="14.00">#</text>
</g>
<!-- _6_1_0 -->
<g id="node11" class="node" pointer-events="visible" data-name="_6_1_0">

<polygon fill="none" stroke="black" points="761.23,-80.5 761.23,-130.1 838.69,-130.1 838.69,-80.5 761.23,-80.5"/>
<text text-anchor="middle" x="799.96" y="-113.5" font-family="Times,serif" font-size="14.00">?</text>
<polyline fill="none" stroke="black" points="761.23,-105.3 838.69,-105.3"/>
<text text-anchor="middle" x="799.96" y="-88.7" font-family="Times,serif" font-size="14.00">solutions:6</text>
</g>
<!-- _5_1_0&#45;&gt;_6_1_0 -->
<g id="edge10" class="edge" data-name="_5_1_0-&gt;_6_1_0">

<path fill="none" stroke="black" d="M717.95,-82.05C728.43,-85.06 739.79,-88.32 750.6,-91.42"/>
<polygon fill="black" stroke="black" points="749.58,-94.77 760.15,-94.16 751.51,-88.04 749.58,-94.77"/>
<text text-anchor="middle" x="739.73" y="-92.5" font-family="Times,serif" font-size="14.00">.</text>
</g>
<!-- _7_1_2 -->
<g id="node14" class="node" pointer-events="visible" data-name="_7_1_2">

<polygon fill="none" stroke="black" points="881.69,-11.5 881.69,-61.1 959.14,-61.1 959.14,-11.5 881.69,-11.5"/>
<text text-anchor="middle" x="920.41" y="-44.5" font-family="Times,serif" font-size="14.00">?</text>
<polyline fill="none" stroke="black" points="881.69,-36.3 959.14,-36.3"/>
<text text-anchor="middle" x="920.41" y="-19.7" font-family="Times,serif" font-size="14.00">solutions:4</text>
</g>
<!-- _6_1_1&#45;&gt;_7_1_2 -->
<g id="edge13" class="edge" data-name="_6_1_1-&gt;_7_1_2">

<path fill="none" stroke="rgb(0, 0, 0)" d="M838.44,-36.3C848.59,-36.3 859.74,-36.3 870.42,-36.3"/>
<polygon fill="black" stroke="black" points="870.26,-39.8 880.26,-36.3 870.26,-32.8 870.26,-39.8"/>
<text text-anchor="middle" x="860.19" y="-40.5" font-family="Times,serif" font-size="14.00">#</text>
</g>
<!-- _7_1_1 -->
<g id="node12" class="node" pointer-events="visible" data-name="_7_1_1">

<polygon fill="none" stroke="black" points="881.69,-80.5 881.69,-130.1 959.14,-130.1 959.14,-80.5 881.69,-80.5"/>
<text text-anchor="middle" x="920.41" y="-113.5" font-family="Times,serif" font-size="14.00">?</text>
<polyline fill="none" stroke="black" points="881.69,-105.3 959.14,-105.3"/>
<text text-anchor="middle" x="920.41" y="-88.7" font-family="Times,serif" font-size="14.00">solutions:3</text>
</g>
<!-- _6_1_0&#45;&gt;_7_1_1 -->
<g id="edge11" class="edge" data-name="_6_1_0-&gt;_7_1_1">

<path fill="none" stroke="rgb(0, 0, 0)" d="M838.44,-105.3C848.59,-105.3 859.74,-105.3 870.42,-105.3"/>
<polygon fill="black" stroke="black" points="870.26,-108.8 880.26,-105.3 870.26,-101.8 870.26,-108.8"/>
<text text-anchor="middle" x="860.19" y="-109.5" font-family="Times,serif" font-size="14.00">#</text>
</g>
<!-- _7_1_0 -->
<g id="node13" class="node" pointer-events="visible" data-name="_7_1_0">

<polygon fill="none" stroke="black" points="881.69,-149.5 881.69,-199.1 959.14,-199.1 959.14,-149.5 881.69,-149.5"/>
<text text-anchor="middle" x="920.41" y="-182.5" font-family="Times,serif" font-size="14.00">?</text>
<polyline fill="none" stroke="black" points="881.69,-174.3 959.14,-174.3"/>
<text text-anchor="middle" x="920.41" y="-157.7" font-family="Times,serif" font-size="14.00">solutions:3</text>
</g>
<!-- _6_1_0&#45;&gt;_7_1_0 -->
<g id="edge12" class="edge" data-name="_6_1_0-&gt;_7_1_0">

<path fill="none" stroke="black" d="M838.44,-127.13C849.13,-133.36 860.93,-140.23 872.12,-146.75"/>
<polygon fill="black" stroke="black" points="870.06,-149.6 880.46,-151.61 873.58,-143.55 870.06,-149.6"/>
<text text-anchor="middle" x="860.19" y="-143.5" font-family="Times,serif" font-size="14.00">.</text>
</g>
<!-- _8_1_2 -->
<g id="node17" class="node" pointer-events="visible" data-name="_8_1_2">

<polygon fill="none" stroke="black" points="1002.14,-80.5 1002.14,-130.1 1079.6,-130.1 1079.6,-80.5 1002.14,-80.5"/>
<text text-anchor="middle" x="1040.87" y="-113.5" font-family="Times,serif" font-size="14.00">?</text>
<polyline fill="none" stroke="black" points="1002.14,-105.3 1079.6,-105.3"/>
<text text-anchor="middle" x="1040.87" y="-88.7" font-family="Times,serif" font-size="14.00">solutions:3</text>
</g>
<!-- _7_1_1&#45;&gt;_8_1_2 -->
<g id="edge16" class="edge" data-name="_7_1_1-&gt;_8_1_2">

<path fill="none" stroke="rgb(0, 0, 0)" d="M958.89,-105.3C969.05,-105.3 980.19,-105.3 990.88,-105.3"/>
<polygon fill="black" stroke="black" points="990.71,-108.8 1000.71,-105.3 990.71,-101.8 990.71,-108.8"/>
<text text-anchor="middle" x="980.64" y="-109.5" font-family="Times,serif" font-size="14.00">#</text>
</g>
<!-- _8_2_0 -->
<g id="node18" class="node" pointer-events="visible" data-name="_8_2_0">

<polygon fill="none" stroke="black" points="1002.14,-11.5 1002.14,-61.1 1079.6,-61.1 1079.6,-11.5 1002.14,-11.5"/>
<text text-anchor="middle" x="1040.87" y="-44.5" font-family="Times,serif" font-size="14.00">?</text>
<polyline fill="none" stroke="black" points="1002.14,-36.3 1079.6,-36.3"/>
<text text-anchor="middle" x="1040.87" y="-19.7" font-family="Times,serif" font-size="14.00">solutions:4</text>
</g>
<!-- _7_1_1&#45;&gt;_8_2_0 -->

<!-- _8_1_1 -->
<g id="node15" class="node" pointer-events="visible" data-name="_8_1_1">

<polygon fill="none" stroke="black" points="1002.14,-149.5 1002.14,-199.1 1079.6,-199.1 1079.6,-149.5 1002.14,-149.5"/>
<text text-anchor="middle" x="1040.87" y="-182.5" font-family="Times,serif" font-size="14.00">?</text>
<polyline fill="none" stroke="black" points="1002.14,-174.3 1079.6,-174.3"/>
<text text-anchor="middle" x="1040.87" y="-157.7" font-family="Times,serif" font-size="14.00">solutions:2</text>
</g>
<!-- _7_1_0&#45;&gt;_8_1_1 -->
<g id="edge14" class="edge" data-name="_7_1_0-&gt;_8_1_1">

<path fill="none" stroke="rgb(0, 0, 0)" d="M958.89,-174.3C969.05,-174.3 980.19,-174.3 990.88,-174.3"/>
<polygon fill="black" stroke="black" points="990.71,-177.8 1000.71,-174.3 990.71,-170.8 990.71,-177.8"/>
<text text-anchor="middle" x="980.64" y="-178.5" font-family="Times,serif" font-size="14.00">#</text>
</g>
<!-- _8_1_0 -->
<g id="node16" class="node" pointer-events="visible" data-name="_8_1_0">

<polygon fill="none" stroke="black" points="1002.14,-218.5 1002.14,-268.1 1079.6,-268.1 1079.6,-218.5 1002.14,-218.5"/>
<text text-anchor="middle" x="1040.87" y="-251.5" font-family="Times,serif" font-size="14.00">?</text>
<polyline fill="none" stroke="black" points="1002.14,-243.3 1079.6,-243.3"/>
<text text-anchor="middle" x="1040.87" y="-226.7" font-family="Times,serif" font-size="14.00">solutions:1</text>
</g>
<!-- _7_1_0&#45;&gt;_8_1_0 -->
<g id="edge15" class="edge" data-name="_7_1_0-&gt;_8_1_0">

<path fill="none" stroke="black" d="M958.89,-196.13C969.59,-202.36 981.38,-209.23 992.58,-215.75"/>
<polygon fill="black" stroke="black" points="990.52,-218.6 1000.92,-220.61 994.04,-212.55 990.52,-218.6"/>
<text text-anchor="middle" x="980.64" y="-212.5" font-family="Times,serif" font-size="14.00">.</text>
</g>
<!-- _7_1_2&#45;&gt;_8_2_0 -->
<g id="edge17" class="edge" data-name="_7_1_2-&gt;_8_2_0">

<path fill="none" stroke="rgb(0, 0, 0)" d="M958.89,-36.3C969.05,-36.3 980.19,-36.3 990.88,-36.3"/>
<polygon fill="black" stroke="black" points="990.71,-39.8 1000.71,-36.3 990.71,-32.8 990.71,-39.8"/>
<text text-anchor="middle" x="980.64" y="-40.5" font-family="Times,serif" font-size="14.00">.</text>
</g>
<!-- _9_1_2 -->
<g id="node21" class="node" pointer-events="visible" data-name="_9_1_2">

<polygon fill="none" stroke="black" points="1122.6,-149.5 1122.6,-199.1 1200.05,-199.1 1200.05,-149.5 1122.6,-149.5"/>
<text text-anchor="middle" x="1161.32" y="-182.5" font-family="Times,serif" font-size="14.00">?</text>
<polyline fill="none" stroke="black" points="1122.6,-174.3 1200.05,-174.3"/>
<text text-anchor="middle" x="1161.32" y="-157.7" font-family="Times,serif" font-size="14.00">solutions:2</text>
</g>
<!-- _8_1_1&#45;&gt;_9_1_2 -->
<g id="edge20" class="edge" data-name="_8_1_1-&gt;_9_1_2">

<path fill="none" stroke="rgb(0, 0, 0)" d="M1079.35,-174.3C1089.5,-174.3 1100.65,-174.3 1111.33,-174.3"/>
<polygon fill="black" stroke="black" points="1111.17,-177.8 1121.17,-174.3 1111.17,-170.8 1111.17,-177.8"/>
<text text-anchor="middle" x="1101.1" y="-178.5" font-family="Times,serif" font-size="14.00">#</text>
</g>
<!-- _9_2_0 -->
<g id="node22" class="node" pointer-events="visible" data-name="_9_2_0">

<polygon fill="none" stroke="black" points="1122.6,-0.5 1122.6,-50.1 1200.05,-50.1 1200.05,-0.5 1122.6,-0.5"/>
<text text-anchor="middle" x="1161.32" y="-33.5" font-family="Times,serif" font-size="14.00">?</text>
<polyline fill="none" stroke="black" points="1122.6,-25.3 1200.05,-25.3"/>
<text text-anchor="middle" x="1161.32" y="-8.7" font-family="Times,serif" font-size="14.00">solutions:3</text>
</g>
<!-- _8_1_1&#45;&gt;_9_2_0 -->

<!-- _9_1_1 -->
<g id="node19" class="node" pointer-events="visible" data-name="_9_1_1">

<polygon fill="none" stroke="black" points="1122.6,-218.5 1122.6,-268.1 1200.05,-268.1 1200.05,-218.5 1122.6,-218.5"/>
<text text-anchor="middle" x="1161.32" y="-251.5" font-family="Times,serif" font-size="14.00">?</text>
<polyline fill="none" stroke="black" points="1122.6,-243.3 1200.05,-243.3"/>
<text text-anchor="middle" x="1161.32" y="-226.7" font-family="Times,serif" font-size="14.00">solutions:1</text>
</g>
<!-- _8_1_0&#45;&gt;_9_1_1 -->
<g id="edge18" class="edge" data-name="_8_1_0-&gt;_9_1_1">

<path fill="none" stroke="rgb(0, 0, 0)" d="M1079.35,-243.3C1089.5,-243.3 1100.65,-243.3 1111.33,-243.3"/>
<polygon fill="black" stroke="black" points="1111.17,-246.8 1121.17,-243.3 1111.17,-239.8 1111.17,-246.8"/>
<text text-anchor="middle" x="1101.1" y="-247.5" font-family="Times,serif" font-size="14.00">#</text>
</g>
<!-- _9_1_0 -->
<g id="node20" class="node" pointer-events="visible" data-name="_9_1_0">

<polygon fill="none" stroke="black" points="1122.6,-287.5 1122.6,-337.1 1200.05,-337.1 1200.05,-287.5 1122.6,-287.5"/>
<text text-anchor="middle" x="1161.32" y="-320.5" font-family="Times,serif" font-size="14.00">?</text>
<polyline fill="none" stroke="black" points="1122.6,-312.3 1200.05,-312.3"/>
<text text-anchor="middle" x="1161.32" y="-295.7" font-family="Times,serif" font-size="14.00">solutions:0</text>
</g>
<!-- _8_1_0&#45;&gt;_9_1_0 -->
<g id="edge19" class="edge" data-name="_8_1_0-&gt;_9_1_0">

<path fill="none" stroke="black" d="M1079.35,-265.13C1090.04,-271.36 1101.84,-278.23 1113.03,-284.75"/>
<polygon fill="black" stroke="black" points="1110.97,-287.6 1121.37,-289.61 1114.49,-281.55 1110.97,-287.6"/>
<text text-anchor="middle" x="1101.1" y="-281.5" font-family="Times,serif" font-size="14.00">.</text>
</g>
<!-- _8_1_2&#45;&gt;_9_2_0 -->
<g id="edge21" class="edge" data-name="_8_1_2-&gt;_9_2_0">

<path fill="none" stroke="rgb(0, 0, 0)" d="M1079.41,-96.03C1088.15,-92.85 1097.09,-88.68 1104.6,-83.3 1115.14,-75.74 1113.81,-69.86 1122.6,-60.3 1123.28,-59.55 1123.98,-58.8 1124.7,-58.05"/>
<polygon fill="black" stroke="black" points="1127.01,-60.68 1131.56,-51.12 1122.04,-55.76 1127.01,-60.68"/>
<text text-anchor="middle" x="1101.1" y="-90.5" font-family="Times,serif" font-size="14.00">.</text>
</g>
<!-- _8_2_0&#45;&gt;_9_2_0 -->
<g id="edge23" class="edge" data-name="_8_2_0-&gt;_9_2_0">

<path fill="none" stroke="rgb(0, 0, 0)" d="M1079.53,-28.86C1085.55,-27.91 1091.73,-27.07 1097.6,-26.5 1102.04,-26.07 1106.67,-25.75 1111.32,-25.51"/>
<polygon fill="black" stroke="black" points="1111.41,-29 1121.27,-25.13 1111.15,-22.01 1111.41,-29"/>
<text text-anchor="middle" x="1101.1" y="-31.5" font-family="Times,serif" font-size="14.00">.</text>
</g>
<!-- _9_2_1 -->
<g id="node23" class="node" pointer-events="visible" data-name="_9_2_1">

<polygon fill="none" stroke="black" points="1122.6,-69.5 1122.6,-119.1 1200.05,-119.1 1200.05,-69.5 1122.6,-69.5"/>
<text text-anchor="middle" x="1161.32" y="-102.5" font-family="Times,serif" font-size="14.00">?</text>
<polyline fill="none" stroke="black" points="1122.6,-94.3 1200.05,-94.3"/>
<text text-anchor="middle" x="1161.32" y="-77.7" font-family="Times,serif" font-size="14.00">solutions:1</text>
</g>
<!-- _8_2_0&#45;&gt;_9_2_1 -->
<g id="edge22" class="edge" data-name="_8_2_0-&gt;_9_2_1">

<path fill="none" stroke="rgb(0, 0, 0)" d="M1079.39,-54.26C1087.7,-58.27 1096.46,-62.51 1104.6,-66.5 1107.28,-67.82 1110.03,-69.17 1112.81,-70.54"/>
<polygon fill="black" stroke="black" points="1111.02,-73.56 1121.53,-74.86 1114.13,-67.29 1111.02,-73.56"/>
<text text-anchor="middle" x="1101.1" y="-70.5" font-family="Times,serif" font-size="14.00">#</text>
</g>
<!-- _10_1_2 -->
<g id="node26" class="node" pointer-events="visible" data-name="_10_1_2">

<polygon fill="none" stroke="black" points="1243.05,-218.5 1243.05,-268.1 1320.51,-268.1 1320.51,-218.5 1243.05,-218.5"/>
<text text-anchor="middle" x="1281.78" y="-251.5" font-family="Times,serif" font-size="14.00">?</text>
<polyline fill="none" stroke="black" points="1243.05,-243.3 1320.51,-243.3"/>
<text text-anchor="middle" x="1281.78" y="-226.7" font-family="Times,serif" font-size="14.00">solutions:1</text>
</g>
<!-- _9_1_1&#45;&gt;_10_1_2 -->
<g id="edge26" class="edge" data-name="_9_1_1-&gt;_10_1_2">

<path fill="none" stroke="rgb(0, 0, 0)" d="M1199.8,-243.3C1209.96,-243.3 1221.1,-243.3 1231.79,-243.3"/>
<polygon fill="black" stroke="black" points="1231.62,-246.8 1241.62,-243.3 1231.62,-239.8 1231.62,-246.8"/>
<text text-anchor="middle" x="1221.55" y="-247.5" font-family="Times,serif" font-size="14.00">#</text>
</g>
<!-- _10_2_0 -->
<g id="node27" class="node" pointer-events="visible" data-name="_10_2_0">

<polygon fill="none" stroke="black" points="1243.05,-144.5 1243.05,-194.1 1320.51,-194.1 1320.51,-144.5 1243.05,-144.5"/>
<text text-anchor="middle" x="1281.78" y="-177.5" font-family="Times,serif" font-size="14.00">?</text>
<polyline fill="none" stroke="black" points="1243.05,-169.3 1320.51,-169.3"/>
<text text-anchor="middle" x="1281.78" y="-152.7" font-family="Times,serif" font-size="14.00">solutions:2</text>
</g>
<!-- _9_1_1&#45;&gt;_10_2_0 -->

<!-- _10_1_1 -->
<g id="node24" class="node" pointer-events="visible" data-name="_10_1_1">

<polygon fill="none" stroke="black" points="1243.05,-287.5 1243.05,-337.1 1320.51,-337.1 1320.51,-287.5 1243.05,-287.5"/>
<text text-anchor="middle" x="1281.78" y="-320.5" font-family="Times,serif" font-size="14.00">?</text>
<polyline fill="none" stroke="black" points="1243.05,-312.3 1320.51,-312.3"/>
<text text-anchor="middle" x="1281.78" y="-295.7" font-family="Times,serif" font-size="14.00">solutions:0</text>
</g>
<!-- _9_1_0&#45;&gt;_10_1_1 -->
<g id="edge24" class="edge" data-name="_9_1_0-&gt;_10_1_1">

<path fill="none" stroke="black" d="M1199.8,-312.3C1209.96,-312.3 1221.1,-312.3 1231.79,-312.3"/>
<polygon fill="black" stroke="black" points="1231.62,-315.8 1241.62,-312.3 1231.62,-308.8 1231.62,-315.8"/>
<text text-anchor="middle" x="1221.55" y="-316.5" font-family="Times,serif" font-size="14.00">#</text>
</g>
<!-- _10_1_0 -->
<g id="node25" class="node" pointer-events="visible" data-name="_10_1_0">

<polygon fill="none" stroke="black" points="1243.05,-356.5 1243.05,-406.1 1320.51,-406.1 1320.51,-356.5 1243.05,-356.5"/>
<text text-anchor="middle" x="1281.78" y="-389.5" font-family="Times,serif" font-size="14.00">?</text>
<polyline fill="none" stroke="black" points="1243.05,-381.3 1320.51,-381.3"/>
<text text-anchor="middle" x="1281.78" y="-364.7" font-family="Times,serif" font-size="14.00">solutions:0</text>
</g>
<!-- _9_1_0&#45;&gt;_10_1_0 -->
<g id="edge25" class="edge" data-name="_9_1_0-&gt;_10_1_0">

<path fill="none" stroke="rgb(0, 0, 0)" d="M1199.8,-334.13C1210.5,-340.36 1222.29,-347.23 1233.49,-353.75"/>
<polygon fill="black" stroke="black" points="1231.43,-356.6 1241.83,-358.61 1234.95,-350.55 1231.43,-356.6"/>
<text text-anchor="middle" x="1221.55" y="-350.5" font-family="Times,serif" font-size="14.00">.</text>
</g>
<!-- _9_1_2&#45;&gt;_10_2_0 -->
<g id="edge27" class="edge" data-name="_9_1_2-&gt;_10_2_0">

<path fill="none" stroke="rgb(0, 0, 0)" d="M1199.8,-172.72C1209.96,-172.29 1221.1,-171.82 1231.79,-171.37"/>
<polygon fill="black" stroke="black" points="1231.78,-174.87 1241.62,-170.95 1231.48,-167.88 1231.78,-174.87"/>
<text text-anchor="middle" x="1221.55" y="-175.5" font-family="Times,serif" font-size="14.00">.</text>
</g>
<!-- _9_2_0&#45;&gt;_10_2_0 -->
<g id="edge29" class="edge" data-name="_9_2_0-&gt;_10_2_0">

<path fill="none" stroke="rgb(0, 0, 0)" d="M1191.93,-49.96C1194.92,-53.23 1197.71,-56.71 1200.05,-60.3 1213.41,-80.78 1204.58,-91.89 1218.05,-112.3 1223.88,-121.14 1231.39,-129.51 1239.18,-136.99"/>
<polygon fill="black" stroke="black" points="1236.8,-139.55 1246.55,-143.7 1241.51,-134.38 1236.8,-139.55"/>
<text text-anchor="middle" x="1221.55" y="-125.5" font-family="Times,serif" font-size="14.00">.</text>
</g>
<!-- _10_2_1 -->
<g id="node28" class="node" pointer-events="visible" data-name="_10_2_1">

<polygon fill="none" stroke="black" points="1243.05,-0.5 1243.05,-50.1 1320.51,-50.1 1320.51,-0.5 1243.05,-0.5"/>
<text text-anchor="middle" x="1281.78" y="-33.5" font-family="Times,serif" font-size="14.00">?</text>
<polyline fill="none" stroke="black" points="1243.05,-25.3 1320.51,-25.3"/>
<text text-anchor="middle" x="1281.78" y="-8.7" font-family="Times,serif" font-size="14.00">solutions:1</text>
</g>
<!-- _9_2_0&#45;&gt;_10_2_1 -->
<g id="edge28" class="edge" data-name="_9_2_0-&gt;_10_2_1">

<path fill="none" stroke="rgb(0, 0, 0)" d="M1199.8,-25.3C1209.96,-25.3 1221.1,-25.3 1231.79,-25.3"/>
<polygon fill="black" stroke="black" points="1231.62,-28.8 1241.62,-25.3 1231.62,-21.8 1231.62,-28.8"/>
<text text-anchor="middle" x="1221.55" y="-29.5" font-family="Times,serif" font-size="14.00">#</text>
</g>
<!-- _10_3_0 -->
<g id="node29" class="node" pointer-events="visible" data-name="_10_3_0">

<polygon fill="none" stroke="black" points="1243.05,-69.5 1243.05,-119.1 1320.51,-119.1 1320.51,-69.5 1243.05,-69.5"/>
<text text-anchor="middle" x="1281.78" y="-102.5" font-family="Times,serif" font-size="14.00">?</text>
<polyline fill="none" stroke="black" points="1243.05,-94.3 1320.51,-94.3"/>
<text text-anchor="middle" x="1281.78" y="-77.7" font-family="Times,serif" font-size="14.00">solutions:1</text>
</g>
<!-- _9_2_1&#45;&gt;_10_3_0 -->
<g id="edge30" class="edge" data-name="_9_2_1-&gt;_10_3_0">

<path fill="none" stroke="rgb(0, 0, 0)" d="M1199.8,-94.3C1209.96,-94.3 1221.1,-94.3 1231.79,-94.3"/>
<polygon fill="black" stroke="black" points="1231.62,-97.8 1241.62,-94.3 1231.62,-90.8 1231.62,-97.8"/>
<text text-anchor="middle" x="1221.55" y="-98.5" font-family="Times,serif" font-size="14.00">.</text>
</g>
<!-- _11_1_2 -->
<g id="node32" class="node" pointer-events="visible" data-name="_11_1_2">

<polygon fill="none" stroke="black" points="1363.51,-287.5 1363.51,-337.1 1440.96,-337.1 1440.96,-287.5 1363.51,-287.5"/>
<text text-anchor="middle" x="1402.23" y="-320.5" font-family="Times,serif" font-size="14.00">?</text>
<polyline fill="none" stroke="black" points="1363.51,-312.3 1440.96,-312.3"/>
<text text-anchor="middle" x="1402.23" y="-295.7" font-family="Times,serif" font-size="14.00">solutions:0</text>
</g>
<!-- _10_1_1&#45;&gt;_11_1_2 -->
<g id="edge33" class="edge" data-name="_10_1_1-&gt;_11_1_2">

<path fill="none" stroke="black" d="M1320.26,-312.3C1330.41,-312.3 1341.56,-312.3 1352.24,-312.3"/>
<polygon fill="black" stroke="black" points="1352.08,-315.8 1362.08,-312.3 1352.08,-308.8 1352.08,-315.8"/>
<text text-anchor="middle" x="1342.01" y="-316.5" font-family="Times,serif" font-size="14.00">#</text>
</g>
<!-- _11_2_0 -->
<g id="node33" class="node" pointer-events="visible" data-name="_11_2_0">

<polygon fill="none" stroke="black" points="1363.51,-213.5 1363.51,-263.1 1440.96,-263.1 1440.96,-213.5 1363.51,-213.5"/>
<text text-anchor="middle" x="1402.23" y="-246.5" font-family="Times,serif" font-size="14.00">?</text>
<polyline fill="none" stroke="black" points="1363.51,-238.3 1440.96,-238.3"/>
<text text-anchor="middle" x="1402.23" y="-221.7" font-family="Times,serif" font-size="14.00">solutions:1</text>
</g>
<!-- _10_1_1&#45;&gt;_11_2_0 -->

<!-- _11_1_1 -->
<g id="node30" class="node" pointer-events="visible" data-name="_11_1_1">

<polygon fill="none" stroke="black" points="1363.51,-356.5 1363.51,-406.1 1440.96,-406.1 1440.96,-356.5 1363.51,-356.5"/>
<text text-anchor="middle" x="1402.23" y="-389.5" font-family="Times,serif" font-size="14.00">?</text>
<polyline fill="none" stroke="black" points="1363.51,-381.3 1440.96,-381.3"/>
<text text-anchor="middle" x="1402.23" y="-364.7" font-family="Times,serif" font-size="14.00">solutions:0</text>
</g>
<!-- _10_1_0&#45;&gt;_11_1_1 -->
<g id="edge31" class="edge" data-name="_10_1_0-&gt;_11_1_1">

<path fill="none" stroke="rgb(0, 0, 0)" d="M1320.26,-381.3C1330.41,-381.3 1341.56,-381.3 1352.24,-381.3"/>
<polygon fill="black" stroke="black" points="1352.08,-384.8 1362.08,-381.3 1352.08,-377.8 1352.08,-384.8"/>
<text text-anchor="middle" x="1342.01" y="-385.5" font-family="Times,serif" font-size="14.00">#</text>
</g>
<!-- _11_1_0 -->
<g id="node31" class="node" pointer-events="visible" data-name="_11_1_0">

<polygon fill="none" stroke="black" points="1363.51,-425.5 1363.51,-475.1 1440.96,-475.1 1440.96,-425.5 1363.51,-425.5"/>
<text text-anchor="middle" x="1402.23" y="-458.5" font-family="Times,serif" font-size="14.00">?</text>
<polyline fill="none" stroke="black" points="1363.51,-450.3 1440.96,-450.3"/>
<text text-anchor="middle" x="1402.23" y="-433.7" font-family="Times,serif" font-size="14.00">solutions:0</text>
</g>
<!-- _10_1_0&#45;&gt;_11_1_0 -->
<g id="edge32" class="edge" data-name="_10_1_0-&gt;_11_1_0">

<path fill="none" stroke="rgb(0, 0, 0)" d="M1320.26,-403.13C1330.95,-409.36 1342.75,-416.23 1353.94,-422.75"/>
<polygon fill="black" stroke="black" points="1351.88,-425.6 1362.28,-427.61 1355.4,-419.55 1351.88,-425.6"/>
<text text-anchor="middle" x="1342.01" y="-419.5" font-family="Times,serif" font-size="14.00">.</text>
</g>
<!-- _10_1_2&#45;&gt;_11_2_0 -->
<g id="edge34" class="edge" data-name="_10_1_2-&gt;_11_2_0">

<path fill="none" stroke="rgb(0, 0, 0)" d="M1320.26,-241.72C1330.41,-241.29 1341.56,-240.82 1352.24,-240.37"/>
<polygon fill="black" stroke="black" points="1352.24,-243.87 1362.08,-239.95 1351.94,-236.88 1352.24,-243.87"/>
<text text-anchor="middle" x="1342.01" y="-244.5" font-family="Times,serif" font-size="14.00">.</text>
</g>
<!-- _10_2_0&#45;&gt;_11_2_0 -->
<g id="edge36" class="edge" data-name="_10_2_0-&gt;_11_2_0">

<path fill="none" stroke="rgb(0, 0, 0)" d="M1320.26,-191.13C1330.95,-197.36 1342.75,-204.23 1353.94,-210.75"/>
<polygon fill="black" stroke="black" points="1351.88,-213.6 1362.28,-215.61 1355.4,-207.55 1351.88,-213.6"/>
<text text-anchor="middle" x="1342.01" y="-207.5" font-family="Times,serif" font-size="14.00">.</text>
</g>
<!-- _11_2_1 -->
<g id="node34" class="node" pointer-events="visible" data-name="_11_2_1">

<polygon fill="none" stroke="black" points="1363.51,-138.5 1363.51,-188.1 1440.96,-188.1 1440.96,-138.5 1363.51,-138.5"/>
<text text-anchor="middle" x="1402.23" y="-171.5" font-family="Times,serif" font-size="14.00">?</text>
<polyline fill="none" stroke="black" points="1363.51,-163.3 1440.96,-163.3"/>
<text text-anchor="middle" x="1402.23" y="-146.7" font-family="Times,serif" font-size="14.00">solutions:1</text>
</g>
<!-- _10_2_0&#45;&gt;_11_2_1 -->
<g id="edge35" class="edge" data-name="_10_2_0-&gt;_11_2_1">

<path fill="none" stroke="rgb(0, 0, 0)" d="M1320.22,-165.73C1326.33,-165.25 1332.59,-164.81 1338.51,-164.5 1342.97,-164.27 1347.61,-164.08 1352.26,-163.92"/>
<polygon fill="black" stroke="black" points="1352.32,-167.42 1362.22,-163.65 1352.13,-160.42 1352.32,-167.42"/>
<text text-anchor="middle" x="1342.01" y="-168.5" font-family="Times,serif" font-size="14.00">#</text>
</g>
<!-- _11_3_0 -->
<g id="node35" class="node" pointer-events="visible" data-name="_11_3_0">

<polygon fill="none" stroke="black" points="1363.51,-69.5 1363.51,-119.1 1440.96,-119.1 1440.96,-69.5 1363.51,-69.5"/>
<text text-anchor="middle" x="1402.23" y="-102.5" font-family="Times,serif" font-size="14.00">?</text>
<polyline fill="none" stroke="black" points="1363.51,-94.3 1440.96,-94.3"/>
<text text-anchor="middle" x="1402.23" y="-77.7" font-family="Times,serif" font-size="14.00">solutions:1</text>
</g>
<!-- _10_2_1&#45;&gt;_11_3_0 -->
<g id="edge37" class="edge" data-name="_10_2_1-&gt;_11_3_0">

<path fill="none" stroke="rgb(0, 0, 0)" d="M1320.26,-47.13C1330.95,-53.36 1342.75,-60.23 1353.94,-66.75"/>
<polygon fill="black" stroke="black" points="1351.88,-69.6 1362.28,-71.61 1355.4,-63.55 1351.88,-69.6"/>
<text text-anchor="middle" x="1342.01" y="-64.5" font-family="Times,serif" font-size="14.00">.</text>
</g>
<!-- _10_3_0&#45;&gt;_11_3_0 -->
<g id="edge38" class="edge" data-name="_10_3_0-&gt;_11_3_0">

<path fill="none" stroke="rgb(0, 0, 0)" d="M1320.26,-94.3C1330.41,-94.3 1341.56,-94.3 1352.24,-94.3"/>
<polygon fill="black" stroke="black" points="1352.08,-97.8 1362.08,-94.3 1352.08,-90.8 1352.08,-97.8"/>
<text text-anchor="middle" x="1342.01" y="-98.5" font-family="Times,serif" font-size="14.00">.</text>
</g>
<!-- _12_1_2 -->
<g id="node38" class="node" pointer-events="visible" data-name="_12_1_2">

<polygon fill="none" stroke="black" points="1483.96,-356.5 1483.96,-406.1 1561.42,-406.1 1561.42,-356.5 1483.96,-356.5"/>
<text text-anchor="middle" x="1522.69" y="-389.5" font-family="Times,serif" font-size="14.00">.</text>
<polyline fill="none" stroke="black" points="1483.96,-381.3 1561.42,-381.3"/>
<text text-anchor="middle" x="1522.69" y="-364.7" font-family="Times,serif" font-size="14.00">solutions:0</text>
</g>
<!-- _11_1_1&#45;&gt;_12_1_2 -->
<g id="edge41" class="edge" data-name="_11_1_1-&gt;_12_1_2">

<path fill="none" stroke="rgb(0, 0, 0)" d="M1440.71,-381.3C1450.87,-381.3 1462.01,-381.3 1472.7,-381.3"/>
<polygon fill="black" stroke="black" points="1472.53,-384.8 1482.53,-381.3 1472.53,-377.8 1472.53,-384.8"/>
<text text-anchor="middle" x="1462.46" y="-385.5" font-family="Times,serif" font-size="14.00">#</text>
</g>
<!-- _12_2_0 -->
<g id="node39" class="node" pointer-events="visible" data-name="_12_2_0">

<polygon fill="none" stroke="black" points="1483.96,-287.5 1483.96,-337.1 1561.42,-337.1 1561.42,-287.5 1483.96,-287.5"/>
<text text-anchor="middle" x="1522.69" y="-320.5" font-family="Times,serif" font-size="14.00">.</text>
<polyline fill="none" stroke="black" points="1483.96,-312.3 1561.42,-312.3"/>
<text text-anchor="middle" x="1522.69" y="-295.7" font-family="Times,serif" font-size="14.00">solutions:0</text>
</g>
<!-- _11_1_1&#45;&gt;_12_2_0 -->
<g id="edge42" class="edge" data-name="_11_1_1-&gt;_12_2_0">

<path fill="none" stroke="rgb(0, 0, 0)" d="M1440.71,-359.47C1451.41,-353.24 1463.2,-346.37 1474.4,-339.85"/>
<polygon fill="black" stroke="black" points="1475.86,-343.05 1482.74,-334.99 1472.34,-337 1475.86,-343.05"/>
<text text-anchor="middle" x="1462.46" y="-350.5" font-family="Times,serif" font-size="14.00">.</text>
</g>
<!-- _12_1_1 -->
<g id="node36" class="node" pointer-events="visible" data-name="_12_1_1">

<polygon fill="none" stroke="black" points="1483.96,-425.5 1483.96,-475.1 1561.42,-475.1 1561.42,-425.5 1483.96,-425.5"/>
<text text-anchor="middle" x="1522.69" y="-458.5" font-family="Times,serif" font-size="14.00">.</text>
<polyline fill="none" stroke="black" points="1483.96,-450.3 1561.42,-450.3"/>
<text text-anchor="middle" x="1522.69" y="-433.7" font-family="Times,serif" font-size="14.00">solutions:0</text>
</g>
<!-- _11_1_0&#45;&gt;_12_1_1 -->
<g id="edge39" class="edge" data-name="_11_1_0-&gt;_12_1_1">

<path fill="none" stroke="rgb(0, 0, 0)" d="M1440.71,-450.3C1450.87,-450.3 1462.01,-450.3 1472.7,-450.3"/>
<polygon fill="black" stroke="black" points="1472.53,-453.8 1482.53,-450.3 1472.53,-446.8 1472.53,-453.8"/>
<text text-anchor="middle" x="1462.46" y="-454.5" font-family="Times,serif" font-size="14.00">#</text>
</g>
<!-- _12_1_0 -->
<g id="node37" class="node" pointer-events="visible" data-name="_12_1_0">

<polygon fill="none" stroke="black" points="1483.96,-494.5 1483.96,-544.1 1561.42,-544.1 1561.42,-494.5 1483.96,-494.5"/>
<text text-anchor="middle" x="1522.69" y="-527.5" font-family="Times,serif" font-size="14.00">.</text>
<polyline fill="none" stroke="black" points="1483.96,-519.3 1561.42,-519.3"/>
<text text-anchor="middle" x="1522.69" y="-502.7" font-family="Times,serif" font-size="14.00">solutions:0</text>
</g>
<!-- _11_1_0&#45;&gt;_12_1_0 -->
<g id="edge40" class="edge" data-name="_11_1_0-&gt;_12_1_0">

<path fill="none" stroke="rgb(0, 0, 0)" d="M1440.71,-472.13C1451.41,-478.36 1463.2,-485.23 1474.4,-491.75"/>
<polygon fill="black" stroke="black" points="1472.34,-494.6 1482.74,-496.61 1475.86,-488.55 1472.34,-494.6"/>
<text text-anchor="middle" x="1462.46" y="-488.5" font-family="Times,serif" font-size="14.00">.</text>
</g>
<!-- _11_1_2&#45;&gt;_12_2_0 -->
<g id="edge43" class="edge" data-name="_11_1_2-&gt;_12_2_0">

<path fill="none" stroke="black" d="M1440.71,-312.3C1450.87,-312.3 1462.01,-312.3 1472.7,-312.3"/>
<polygon fill="black" stroke="black" points="1472.53,-315.8 1482.53,-312.3 1472.53,-308.8 1472.53,-315.8"/>
<text text-anchor="middle" x="1462.46" y="-316.5" font-family="Times,serif" font-size="14.00">.</text>
</g>
<!-- _11_2_0&#45;&gt;_12_2_0 -->
<g id="edge45" class="edge" data-name="_11_2_0-&gt;_12_2_0">

<path fill="none" stroke="black" d="M1440.71,-261.71C1451.41,-268.4 1463.2,-275.76 1474.4,-282.76"/>
<polygon fill="black" stroke="black" points="1472.43,-285.65 1482.76,-287.98 1476.14,-279.72 1472.43,-285.65"/>
<text text-anchor="middle" x="1462.46" y="-279.5" font-family="Times,serif" font-size="14.00">.</text>
</g>
<!-- _12_2_1 -->
<g id="node40" class="node" pointer-events="visible" data-name="_12_2_1">

<polygon fill="none" stroke="black" points="1483.96,-207.5 1483.96,-257.1 1561.42,-257.1 1561.42,-207.5 1483.96,-207.5"/>
<text text-anchor="middle" x="1522.69" y="-240.5" font-family="Times,serif" font-size="14.00">.</text>
<polyline fill="none" stroke="black" points="1483.96,-232.3 1561.42,-232.3"/>
<text text-anchor="middle" x="1522.69" y="-215.7" font-family="Times,serif" font-size="14.00">solutions:1</text>
</g>
<!-- _11_2_0&#45;&gt;_12_2_1 -->
<g id="edge44" class="edge" data-name="_11_2_0-&gt;_12_2_1">

<path fill="none" stroke="black" d="M1440.68,-234.73C1446.79,-234.25 1453.05,-233.81 1458.96,-233.5 1463.42,-233.27 1468.06,-233.08 1472.71,-232.92"/>
<polygon fill="black" stroke="black" points="1472.78,-236.42 1482.68,-232.65 1472.59,-229.42 1472.78,-236.42"/>
<text text-anchor="middle" x="1462.46" y="-237.5" font-family="Times,serif" font-size="14.00">#</text>
</g>
<!-- _12_3_0 -->
<g id="node41" class="node" pointer-events="visible" data-name="_12_3_0">

<polygon fill="none" stroke="black" points="1483.96,-138.5 1483.96,-188.1 1561.42,-188.1 1561.42,-138.5 1483.96,-138.5"/>
<text text-anchor="middle" x="1522.69" y="-171.5" font-family="Times,serif" font-size="14.00">.</text>
<polyline fill="none" stroke="black" points="1483.96,-163.3 1561.42,-163.3"/>
<text text-anchor="middle" x="1522.69" y="-146.7" font-family="Times,serif" font-size="14.00">solutions:1</text>
</g>
<!-- _11_2_1&#45;&gt;_12_3_0 -->
<g id="edge46" class="edge" data-name="_11_2_1-&gt;_12_3_0">

<path fill="none" stroke="rgb(0, 0, 0)" d="M1440.71,-163.3C1450.87,-163.3 1462.01,-163.3 1472.7,-163.3"/>
<polygon fill="black" stroke="black" points="1472.53,-166.8 1482.53,-163.3 1472.53,-159.8 1472.53,-166.8"/>
<text text-anchor="middle" x="1462.46" y="-167.5" font-family="Times,serif" font-size="14.00">.</text>
</g>
<!-- _11_3_0&#45;&gt;_12_3_0 -->
<g id="edge47" class="edge" data-name="_11_3_0-&gt;_12_3_0">

<path fill="none" stroke="rgb(0, 0, 0)" d="M1440.71,-116.13C1451.41,-122.36 1463.2,-129.23 1474.4,-135.75"/>
<polygon fill="black" stroke="black" points="1472.34,-138.6 1482.74,-140.61 1475.86,-132.55 1472.34,-138.6"/>
<text text-anchor="middle" x="1462.46" y="-132.5" font-family="Times,serif" font-size="14.00">.</text>
</g>
<!-- _13_2_0 -->
<g id="node43" class="node" pointer-events="visible" data-name="_13_2_0">

<ellipse fill="none" stroke="black" cx="1645.75" cy="-381.3" rx="44.67" ry="18"/>
<text text-anchor="middle" x="1645.75" y="-377.1" font-family="Times,serif" font-size="14.00">_13_2_0</text>
</g>
<!-- _12_1_1&#45;&gt;_13_2_0 -->
<g id="edge49" class="edge" data-name="_12_1_1-&gt;_13_2_0">

<path fill="none" stroke="rgb(0, 0, 0)" d="M1561.33,-428.85C1576.56,-420.17 1594.05,-410.2 1609.07,-401.64"/>
<polygon fill="black" stroke="black" points="1610.75,-404.71 1617.7,-396.72 1607.28,-398.63 1610.75,-404.71"/>
<text text-anchor="middle" x="1581.17" y="-421.5" font-family="Times,serif" font-size="14.00">.</text>
</g>
<!-- _13_1_0 -->
<g id="node42" class="node" pointer-events="visible" data-name="_13_1_0">

<ellipse fill="none" stroke="rgb(0, 0, 0)" cx="1645.75" cy="-519.3" rx="44.67" ry="18"/>
<text text-anchor="middle" x="1645.75" y="-515.1" font-family="Times,serif" font-size="14.00">_13_1_0</text>
</g>
<!-- _12_1_0&#45;&gt;_13_1_0 -->
<g id="edge48" class="edge" data-name="_12_1_0-&gt;_13_1_0">

<path fill="none" stroke="rgb(0, 0, 0)" d="M1561.33,-519.3C1570.21,-519.3 1579.87,-519.3 1589.35,-519.3"/>
<polygon fill="black" stroke="black" points="1589.26,-522.8 1599.26,-519.3 1589.26,-515.8 1589.26,-522.8"/>
<text text-anchor="middle" x="1581.17" y="-523.5" font-family="Times,serif" font-size="14.00">.</text>
</g>
<!-- _12_1_2&#45;&gt;_13_2_0 -->
<g id="edge50" class="edge" data-name="_12_1_2-&gt;_13_2_0">

<path fill="none" stroke="rgb(0, 0, 0)" d="M1561.33,-381.3C1570.21,-381.3 1579.87,-381.3 1589.35,-381.3"/>
<polygon fill="black" stroke="black" points="1589.26,-384.8 1599.26,-381.3 1589.26,-377.8 1589.26,-384.8"/>
<text text-anchor="middle" x="1581.17" y="-385.5" font-family="Times,serif" font-size="14.00">.</text>
</g>
<g id="edge51" class="edge" data-name="_12_2_0-&gt;_13_2_0" data-comment="_12_1_2-&gt;_13_2_0">

<path fill="none" stroke="black" d="M1561.33,-333.75C1576.56,-342.43 1594.05,-352.4 1609.07,-360.96"/>
<polygon fill="black" stroke="black" points="1607.28,-363.97 1617.7,-365.88 1610.75,-357.89 1607.28,-363.97"/>
<text text-anchor="middle" x="1581.17" y="-348.5" font-family="Times,serif" font-size="14.00">.</text>
</g><g id="node44" class="node" pointer-events="visible" data-name="_13_3_0" data-comment="_12_1_2-&gt;_13_2_0">

<ellipse fill="none" stroke="black" cx="1645.75" cy="-195.3" rx="44.67" ry="18"/>
<text text-anchor="middle" x="1645.75" y="-191.1" font-family="Times,serif" font-size="14.00">_13_3_0</text>
</g><g id="edge52" class="edge" data-name="_12_2_1-&gt;_13_3_0" data-comment="_12_1_2-&gt;_13_2_0">

<path fill="none" stroke="black" d="M1561.33,-220.8C1573.02,-217.22 1586.05,-213.24 1598.27,-209.51"/>
<polygon fill="black" stroke="black" points="1599.21,-212.88 1607.75,-206.61 1597.17,-206.18 1599.21,-212.88"/>
<text text-anchor="middle" x="1581.17" y="-218.5" font-family="Times,serif" font-size="14.00">.</text>
</g><g id="edge53" class="edge" data-name="_12_3_0-&gt;_13_3_0" data-comment="_12_1_2-&gt;_13_2_0">

<path fill="none" stroke="rgb(0, 0, 0)" d="M1561.33,-173.25C1572.48,-176.2 1584.85,-179.47 1596.57,-182.56"/>
<polygon fill="black" stroke="black" points="1595.52,-185.91 1606.09,-185.08 1597.31,-179.14 1595.52,-185.91"/>
<text text-anchor="middle" x="1581.17" y="-182.5" font-family="Times,serif" font-size="14.00">.</text>
</g></g>
</svg>