<?xml version="1.0" encoding="UTF-8" standalone="no"?>
<!DOCTYPE svg PUBLIC "-//W3C//DTD SVG 1.1//EN"
 "http://www.w3.org/Graphics/SVG/1.1/DTD/svg11.dtd">
<!-- Generated by graphviz version 8.1.0 (20230707.0739)
 -->
<!-- Pages: 1 -->
<svg width="1682pt" height="537pt"
 viewBox="0.00 0.00 1681.66 536.50" xmlns="http://www.w3.org/2000/svg" xmlns:xlink="http://www.w3.org/1999/xlink">
<g id="graph0" class="graph" transform="scale(1 1) rotate(0) translate(4 532.5)">
<polygon fill="white" stroke="none" points="-4,4 -4,-532.5 1677.66,-532.5 1677.66,4 -4,4"/>
<!-- _0_0_0 -->
<g id="node1" class="node">
<title>_0_0_0</title>
<polygon fill="none" stroke="black" points="0,-77.5 0,-125 82.75,-125 82.75,-77.5 0,-77.5"/>
<text text-anchor="middle" x="41.38" y="-107.7" font-family="Times New Roman,serif" font-size="14.00">?</text>
<polyline fill="none" stroke="black" points="0,-101.25 82.75,-101.25"/>
<text text-anchor="middle" x="41.38" y="-83.95" font-family="Times New Roman,serif" font-size="14.00">solutions:10</text>
</g>
<!-- _1_0_1 -->
<g id="node2" class="node">
<title>_1_0_1</title>
<polygon fill="none" stroke="black" points="129.62,-111.5 129.62,-159 205.62,-159 205.62,-111.5 129.62,-111.5"/>
<text text-anchor="middle" x="167.62" y="-141.7" font-family="Times New Roman,serif" font-size="14.00">#</text>
<polyline fill="none" stroke="black" points="129.62,-135.25 205.62,-135.25"/>
<text text-anchor="middle" x="167.62" y="-117.95" font-family="Times New Roman,serif" font-size="14.00">solutions:0</text>
</g>
<!-- _0_0_0&#45;&gt;_1_0_1 -->
<g id="edge1" class="edge">
<title>_0_0_0&#45;&gt;_1_0_1</title>
<path fill="none" stroke="black" d="M82.72,-112.29C94.44,-115.5 107.36,-119.03 119.47,-122.35"/>
<polygon fill="black" stroke="black" points="118.28,-125.92 128.85,-125.19 120.13,-119.17 118.28,-125.92"/>
<text text-anchor="middle" x="104.5" y="-121.7" font-family="Times New Roman,serif" font-size="14.00">#</text>
</g>
<!-- _1_0_0 -->
<g id="node3" class="node">
<title>_1_0_0</title>
<polygon fill="none" stroke="black" points="126.25,-44.5 126.25,-92 209,-92 209,-44.5 126.25,-44.5"/>
<text text-anchor="middle" x="167.62" y="-74.7" font-family="Times New Roman,serif" font-size="14.00">#</text>
<polyline fill="none" stroke="black" points="126.25,-68.25 209,-68.25"/>
<text text-anchor="middle" x="167.62" y="-50.95" font-family="Times New Roman,serif" font-size="14.00">solutions:10</text>
</g>
<!-- _0_0_0&#45;&gt;_1_0_0 -->
<g id="edge2" class="edge">
<title>_0_0_0&#45;&gt;_1_0_0</title>
<path fill="none" stroke="black" d="M82.72,-90.54C93.35,-87.71 104.95,-84.63 116.05,-81.68"/>
<polygon fill="black" stroke="black" points="116.72,-84.86 125.49,-78.91 114.92,-78.09 116.72,-84.86"/>
<text text-anchor="middle" x="104.5" y="-87.7" font-family="Times New Roman,serif" font-size="14.00">.</text>
</g>
<!-- _2_0_2 -->
<g id="node5" class="node">
<title>_2_0_2</title>
<polygon fill="none" stroke="black" points="255.88,-111.5 255.88,-159 331.88,-159 331.88,-111.5 255.88,-111.5"/>
<text text-anchor="middle" x="293.88" y="-141.7" font-family="Times New Roman,serif" font-size="14.00">#</text>
<polyline fill="none" stroke="black" points="255.88,-135.25 331.88,-135.25"/>
<text text-anchor="middle" x="293.88" y="-117.95" font-family="Times New Roman,serif" font-size="14.00">solutions:0</text>
</g>
<!-- _1_0_1&#45;&gt;_2_0_2 -->
<g id="edge4" class="edge">
<title>_1_0_1&#45;&gt;_2_0_2</title>
<path fill="none" stroke="black" d="M205.57,-135.25C218.09,-135.25 232.25,-135.25 245.46,-135.25"/>
<polygon fill="black" stroke="black" points="245.29,-138.75 255.29,-135.25 245.29,-131.75 245.29,-138.75"/>
<text text-anchor="middle" x="230.75" y="-137.7" font-family="Times New Roman,serif" font-size="14.00">#</text>
</g>
<!-- _2_0_1 -->
<g id="node4" class="node">
<title>_2_0_1</title>
<polygon fill="none" stroke="black" points="252.5,-44.5 252.5,-92 335.25,-92 335.25,-44.5 252.5,-44.5"/>
<text text-anchor="middle" x="293.88" y="-74.7" font-family="Times New Roman,serif" font-size="14.00">#</text>
<polyline fill="none" stroke="black" points="252.5,-68.25 335.25,-68.25"/>
<text text-anchor="middle" x="293.88" y="-50.95" font-family="Times New Roman,serif" font-size="14.00">solutions:10</text>
</g>
<!-- _1_0_0&#45;&gt;_2_0_1 -->
<g id="edge3" class="edge">
<title>_1_0_0&#45;&gt;_2_0_1</title>
<path fill="none" stroke="black" d="M208.97,-68.25C219.49,-68.25 230.97,-68.25 241.96,-68.25"/>
<polygon fill="black" stroke="black" points="241.74,-71.75 251.74,-68.25 241.74,-64.75 241.74,-71.75"/>
<text text-anchor="middle" x="230.75" y="-70.7" font-family="Times New Roman,serif" font-size="14.00">#</text>
</g>
<!-- _3_0_2 -->
<g id="node6" class="node">
<title>_3_0_2</title>
<polygon fill="none" stroke="black" points="378.75,-44.5 378.75,-92 461.5,-92 461.5,-44.5 378.75,-44.5"/>
<text text-anchor="middle" x="420.12" y="-74.7" font-family="Times New Roman,serif" font-size="14.00">#</text>
<polyline fill="none" stroke="black" points="378.75,-68.25 461.5,-68.25"/>
<text text-anchor="middle" x="420.12" y="-50.95" font-family="Times New Roman,serif" font-size="14.00">solutions:10</text>
</g>
<!-- _2_0_1&#45;&gt;_3_0_2 -->
<g id="edge5" class="edge">
<title>_2_0_1&#45;&gt;_3_0_2</title>
<path fill="none" stroke="black" d="M335.22,-68.25C345.74,-68.25 357.22,-68.25 368.21,-68.25"/>
<polygon fill="black" stroke="black" points="367.99,-71.75 377.99,-68.25 367.99,-64.75 367.99,-71.75"/>
<text text-anchor="middle" x="357" y="-70.7" font-family="Times New Roman,serif" font-size="14.00">#</text>
</g>
<!-- _3_0_3 -->
<g id="node7" class="node">
<title>_3_0_3</title>
<polygon fill="none" stroke="black" points="382.12,-111.5 382.12,-159 458.12,-159 458.12,-111.5 382.12,-111.5"/>
<text text-anchor="middle" x="420.12" y="-141.7" font-family="Times New Roman,serif" font-size="14.00">#</text>
<polyline fill="none" stroke="black" points="382.12,-135.25 458.12,-135.25"/>
<text text-anchor="middle" x="420.12" y="-117.95" font-family="Times New Roman,serif" font-size="14.00">solutions:0</text>
</g>
<!-- _2_0_2&#45;&gt;_3_0_3 -->
<g id="edge6" class="edge">
<title>_2_0_2&#45;&gt;_3_0_3</title>
<path fill="none" stroke="black" d="M331.82,-135.25C344.34,-135.25 358.5,-135.25 371.71,-135.25"/>
<polygon fill="black" stroke="black" points="371.54,-138.75 381.54,-135.25 371.54,-131.75 371.54,-138.75"/>
<text text-anchor="middle" x="357" y="-137.7" font-family="Times New Roman,serif" font-size="14.00">#</text>
</g>
<!-- _4_0_3 -->
<g id="node8" class="node">
<title>_4_0_3</title>
<polygon fill="none" stroke="black" points="505,-44.5 505,-92 587.75,-92 587.75,-44.5 505,-44.5"/>
<text text-anchor="middle" x="546.38" y="-74.7" font-family="Times New Roman,serif" font-size="14.00">?</text>
<polyline fill="none" stroke="black" points="505,-68.25 587.75,-68.25"/>
<text text-anchor="middle" x="546.38" y="-50.95" font-family="Times New Roman,serif" font-size="14.00">solutions:10</text>
</g>
<!-- _3_0_2&#45;&gt;_4_0_3 -->
<g id="edge7" class="edge">
<title>_3_0_2&#45;&gt;_4_0_3</title>
<path fill="none" stroke="black" d="M461.47,-68.25C471.99,-68.25 483.47,-68.25 494.46,-68.25"/>
<polygon fill="black" stroke="black" points="494.24,-71.75 504.24,-68.25 494.24,-64.75 494.24,-71.75"/>
<text text-anchor="middle" x="483.25" y="-70.7" font-family="Times New Roman,serif" font-size="14.00">#</text>
</g>
<!-- _5_1_0 -->
<g id="node9" class="node">
<title>_5_1_0</title>
<polygon fill="none" stroke="black" points="627.5,-44.5 627.5,-92 710.25,-92 710.25,-44.5 627.5,-44.5"/>
<text text-anchor="middle" x="668.88" y="-74.7" font-family="Times New Roman,serif" font-size="14.00">?</text>
<polyline fill="none" stroke="black" points="627.5,-68.25 710.25,-68.25"/>
<text text-anchor="middle" x="668.88" y="-50.95" font-family="Times New Roman,serif" font-size="14.00">solutions:10</text>
</g>
<!-- _4_0_3&#45;&gt;_5_1_0 -->
<g id="edge8" class="edge">
<title>_4_0_3&#45;&gt;_5_1_0</title>
<path fill="none" stroke="black" d="M587.5,-68.25C596.85,-68.25 606.93,-68.25 616.69,-68.25"/>
<polygon fill="black" stroke="black" points="616.51,-71.75 626.51,-68.25 616.51,-64.75 616.51,-71.75"/>
<text text-anchor="middle" x="607.62" y="-70.7" font-family="Times New Roman,serif" font-size="14.00">.</text>
</g>
<!-- _6_1_1 -->
<g id="node10" class="node">
<title>_6_1_1</title>
<polygon fill="none" stroke="black" points="753.75,-11.5 753.75,-59 829.75,-59 829.75,-11.5 753.75,-11.5"/>
<text text-anchor="middle" x="791.75" y="-41.7" font-family="Times New Roman,serif" font-size="14.00">?</text>
<polyline fill="none" stroke="black" points="753.75,-35.25 829.75,-35.25"/>
<text text-anchor="middle" x="791.75" y="-17.95" font-family="Times New Roman,serif" font-size="14.00">solutions:4</text>
</g>
<!-- _5_1_0&#45;&gt;_6_1_1 -->
<g id="edge9" class="edge">
<title>_5_1_0&#45;&gt;_6_1_1</title>
<path fill="none" stroke="black" d="M710.12,-57.26C720.85,-54.33 732.52,-51.15 743.58,-48.13"/>
<polygon fill="black" stroke="black" points="744.21,-51.31 752.94,-45.3 742.37,-44.56 744.21,-51.31"/>
<text text-anchor="middle" x="732" y="-54.7" font-family="Times New Roman,serif" font-size="14.00">#</text>
</g>
<!-- _6_1_0 -->
<g id="node11" class="node">
<title>_6_1_0</title>
<polygon fill="none" stroke="black" points="753.75,-78.5 753.75,-126 829.75,-126 829.75,-78.5 753.75,-78.5"/>
<text text-anchor="middle" x="791.75" y="-108.7" font-family="Times New Roman,serif" font-size="14.00">?</text>
<polyline fill="none" stroke="black" points="753.75,-102.25 829.75,-102.25"/>
<text text-anchor="middle" x="791.75" y="-84.95" font-family="Times New Roman,serif" font-size="14.00">solutions:6</text>
</g>
<!-- _5_1_0&#45;&gt;_6_1_0 -->
<g id="edge10" class="edge">
<title>_5_1_0&#45;&gt;_6_1_0</title>
<path fill="none" stroke="black" d="M710.12,-79.57C720.85,-82.59 732.52,-85.87 743.58,-88.98"/>
<polygon fill="black" stroke="black" points="742.36,-92.56 752.94,-91.9 744.26,-85.82 742.36,-92.56"/>
<text text-anchor="middle" x="732" y="-88.7" font-family="Times New Roman,serif" font-size="14.00">.</text>
</g>
<!-- _7_1_2 -->
<g id="node14" class="node">
<title>_7_1_2</title>
<polygon fill="none" stroke="black" points="873.25,-11.5 873.25,-59 949.25,-59 949.25,-11.5 873.25,-11.5"/>
<text text-anchor="middle" x="911.25" y="-41.7" font-family="Times New Roman,serif" font-size="14.00">?</text>
<polyline fill="none" stroke="black" points="873.25,-35.25 949.25,-35.25"/>
<text text-anchor="middle" x="911.25" y="-17.95" font-family="Times New Roman,serif" font-size="14.00">solutions:4</text>
</g>
<!-- _6_1_1&#45;&gt;_7_1_2 -->
<g id="edge13" class="edge">
<title>_6_1_1&#45;&gt;_7_1_2</title>
<path fill="none" stroke="black" d="M829.61,-35.25C840.1,-35.25 851.69,-35.25 862.73,-35.25"/>
<polygon fill="black" stroke="black" points="862.53,-38.75 872.53,-35.25 862.53,-31.75 862.53,-38.75"/>
<text text-anchor="middle" x="851.5" y="-37.7" font-family="Times New Roman,serif" font-size="14.00">#</text>
</g>
<!-- _7_1_1 -->
<g id="node12" class="node">
<title>_7_1_1</title>
<polygon fill="none" stroke="black" points="873.25,-78.5 873.25,-126 949.25,-126 949.25,-78.5 873.25,-78.5"/>
<text text-anchor="middle" x="911.25" y="-108.7" font-family="Times New Roman,serif" font-size="14.00">?</text>
<polyline fill="none" stroke="black" points="873.25,-102.25 949.25,-102.25"/>
<text text-anchor="middle" x="911.25" y="-84.95" font-family="Times New Roman,serif" font-size="14.00">solutions:3</text>
</g>
<!-- _6_1_0&#45;&gt;_7_1_1 -->
<g id="edge11" class="edge">
<title>_6_1_0&#45;&gt;_7_1_1</title>
<path fill="none" stroke="black" d="M829.61,-102.25C840.1,-102.25 851.69,-102.25 862.73,-102.25"/>
<polygon fill="black" stroke="black" points="862.53,-105.75 872.53,-102.25 862.53,-98.75 862.53,-105.75"/>
<text text-anchor="middle" x="851.5" y="-104.7" font-family="Times New Roman,serif" font-size="14.00">#</text>
</g>
<!-- _7_1_0 -->
<g id="node13" class="node">
<title>_7_1_0</title>
<polygon fill="none" stroke="black" points="873.25,-145.5 873.25,-193 949.25,-193 949.25,-145.5 873.25,-145.5"/>
<text text-anchor="middle" x="911.25" y="-175.7" font-family="Times New Roman,serif" font-size="14.00">?</text>
<polyline fill="none" stroke="black" points="873.25,-169.25 949.25,-169.25"/>
<text text-anchor="middle" x="911.25" y="-151.95" font-family="Times New Roman,serif" font-size="14.00">solutions:3</text>
</g>
<!-- _6_1_0&#45;&gt;_7_1_0 -->
<g id="edge12" class="edge">
<title>_6_1_0&#45;&gt;_7_1_0</title>
<path fill="none" stroke="black" d="M829.61,-123.27C840.54,-129.5 852.66,-136.41 864.11,-142.94"/>
<polygon fill="black" stroke="black" points="862.1,-146.4 872.53,-148.31 865.57,-140.32 862.1,-146.4"/>
<text text-anchor="middle" x="851.5" y="-139.7" font-family="Times New Roman,serif" font-size="14.00">.</text>
</g>
<!-- _8_1_2 -->
<g id="node17" class="node">
<title>_8_1_2</title>
<polygon fill="none" stroke="black" points="992.75,-78.5 992.75,-126 1068.75,-126 1068.75,-78.5 992.75,-78.5"/>
<text text-anchor="middle" x="1030.75" y="-108.7" font-family="Times New Roman,serif" font-size="14.00">?</text>
<polyline fill="none" stroke="black" points="992.75,-102.25 1068.75,-102.25"/>
<text text-anchor="middle" x="1030.75" y="-84.95" font-family="Times New Roman,serif" font-size="14.00">solutions:3</text>
</g>
<!-- _7_1_1&#45;&gt;_8_1_2 -->
<g id="edge16" class="edge">
<title>_7_1_1&#45;&gt;_8_1_2</title>
<path fill="none" stroke="black" d="M949.11,-102.25C959.6,-102.25 971.19,-102.25 982.23,-102.25"/>
<polygon fill="black" stroke="black" points="982.03,-105.75 992.03,-102.25 982.03,-98.75 982.03,-105.75"/>
<text text-anchor="middle" x="971" y="-104.7" font-family="Times New Roman,serif" font-size="14.00">#</text>
</g>
<!-- _8_1_1 -->
<g id="node15" class="node">
<title>_8_1_1</title>
<polygon fill="none" stroke="black" points="992.75,-145.5 992.75,-193 1068.75,-193 1068.75,-145.5 992.75,-145.5"/>
<text text-anchor="middle" x="1030.75" y="-175.7" font-family="Times New Roman,serif" font-size="14.00">?</text>
<polyline fill="none" stroke="black" points="992.75,-169.25 1068.75,-169.25"/>
<text text-anchor="middle" x="1030.75" y="-151.95" font-family="Times New Roman,serif" font-size="14.00">solutions:2</text>
</g>
<!-- _7_1_0&#45;&gt;_8_1_1 -->
<g id="edge14" class="edge">
<title>_7_1_0&#45;&gt;_8_1_1</title>
<path fill="none" stroke="black" d="M949.11,-169.25C959.6,-169.25 971.19,-169.25 982.23,-169.25"/>
<polygon fill="black" stroke="black" points="982.03,-172.75 992.03,-169.25 982.03,-165.75 982.03,-172.75"/>
<text text-anchor="middle" x="971" y="-171.7" font-family="Times New Roman,serif" font-size="14.00">#</text>
</g>
<!-- _8_1_0 -->
<g id="node16" class="node">
<title>_8_1_0</title>
<polygon fill="none" stroke="black" points="992.75,-212.5 992.75,-260 1068.75,-260 1068.75,-212.5 992.75,-212.5"/>
<text text-anchor="middle" x="1030.75" y="-242.7" font-family="Times New Roman,serif" font-size="14.00">?</text>
<polyline fill="none" stroke="black" points="992.75,-236.25 1068.75,-236.25"/>
<text text-anchor="middle" x="1030.75" y="-218.95" font-family="Times New Roman,serif" font-size="14.00">solutions:1</text>
</g>
<!-- _7_1_0&#45;&gt;_8_1_0 -->
<g id="edge15" class="edge">
<title>_7_1_0&#45;&gt;_8_1_0</title>
<path fill="none" stroke="black" d="M949.11,-190.27C960.04,-196.5 972.16,-203.41 983.61,-209.94"/>
<polygon fill="black" stroke="black" points="981.6,-213.4 992.03,-215.31 985.07,-207.32 981.6,-213.4"/>
<text text-anchor="middle" x="971" y="-206.7" font-family="Times New Roman,serif" font-size="14.00">.</text>
</g>
<!-- _8_2_0 -->
<g id="node18" class="node">
<title>_8_2_0</title>
<polygon fill="none" stroke="black" points="992.75,-11.5 992.75,-59 1068.75,-59 1068.75,-11.5 992.75,-11.5"/>
<text text-anchor="middle" x="1030.75" y="-41.7" font-family="Times New Roman,serif" font-size="14.00">?</text>
<polyline fill="none" stroke="black" points="992.75,-35.25 1068.75,-35.25"/>
<text text-anchor="middle" x="1030.75" y="-17.95" font-family="Times New Roman,serif" font-size="14.00">solutions:4</text>
</g>
<!-- _7_1_2&#45;&gt;_8_2_0 -->
<g id="edge17" class="edge">
<title>_7_1_2&#45;&gt;_8_2_0</title>
<path fill="none" stroke="black" d="M949.11,-35.25C959.6,-35.25 971.19,-35.25 982.23,-35.25"/>
<polygon fill="black" stroke="black" points="982.03,-38.75 992.03,-35.25 982.03,-31.75 982.03,-38.75"/>
<text text-anchor="middle" x="971" y="-37.7" font-family="Times New Roman,serif" font-size="14.00">.</text>
</g>
<!-- _9_1_2 -->
<g id="node21" class="node">
<title>_9_1_2</title>
<polygon fill="none" stroke="black" points="1112.25,-145.5 1112.25,-193 1188.25,-193 1188.25,-145.5 1112.25,-145.5"/>
<text text-anchor="middle" x="1150.25" y="-175.7" font-family="Times New Roman,serif" font-size="14.00">?</text>
<polyline fill="none" stroke="black" points="1112.25,-169.25 1188.25,-169.25"/>
<text text-anchor="middle" x="1150.25" y="-151.95" font-family="Times New Roman,serif" font-size="14.00">solutions:2</text>
</g>
<!-- _8_1_1&#45;&gt;_9_1_2 -->
<g id="edge20" class="edge">
<title>_8_1_1&#45;&gt;_9_1_2</title>
<path fill="none" stroke="black" d="M1068.61,-169.25C1079.1,-169.25 1090.69,-169.25 1101.73,-169.25"/>
<polygon fill="black" stroke="black" points="1101.53,-172.75 1111.53,-169.25 1101.53,-165.75 1101.53,-172.75"/>
<text text-anchor="middle" x="1090.5" y="-171.7" font-family="Times New Roman,serif" font-size="14.00">#</text>
</g>
<!-- _9_1_1 -->
<g id="node19" class="node">
<title>_9_1_1</title>
<polygon fill="none" stroke="black" points="1112.25,-212.5 1112.25,-260 1188.25,-260 1188.25,-212.5 1112.25,-212.5"/>
<text text-anchor="middle" x="1150.25" y="-242.7" font-family="Times New Roman,serif" font-size="14.00">?</text>
<polyline fill="none" stroke="black" points="1112.25,-236.25 1188.25,-236.25"/>
<text text-anchor="middle" x="1150.25" y="-218.95" font-family="Times New Roman,serif" font-size="14.00">solutions:1</text>
</g>
<!-- _8_1_0&#45;&gt;_9_1_1 -->
<g id="edge18" class="edge">
<title>_8_1_0&#45;&gt;_9_1_1</title>
<path fill="none" stroke="black" d="M1068.61,-236.25C1079.1,-236.25 1090.69,-236.25 1101.73,-236.25"/>
<polygon fill="black" stroke="black" points="1101.53,-239.75 1111.53,-236.25 1101.53,-232.75 1101.53,-239.75"/>
<text text-anchor="middle" x="1090.5" y="-238.7" font-family="Times New Roman,serif" font-size="14.00">#</text>
</g>
<!-- _9_1_0 -->
<g id="node20" class="node">
<title>_9_1_0</title>
<polygon fill="none" stroke="black" points="1112.25,-279.5 1112.25,-327 1188.25,-327 1188.25,-279.5 1112.25,-279.5"/>
<text text-anchor="middle" x="1150.25" y="-309.7" font-family="Times New Roman,serif" font-size="14.00">?</text>
<polyline fill="none" stroke="black" points="1112.25,-303.25 1188.25,-303.25"/>
<text text-anchor="middle" x="1150.25" y="-285.95" font-family="Times New Roman,serif" font-size="14.00">solutions:0</text>
</g>
<!-- _8_1_0&#45;&gt;_9_1_0 -->
<g id="edge19" class="edge">
<title>_8_1_0&#45;&gt;_9_1_0</title>
<path fill="none" stroke="black" d="M1068.61,-257.27C1079.54,-263.5 1091.66,-270.41 1103.11,-276.94"/>
<polygon fill="black" stroke="black" points="1101.1,-280.4 1111.53,-282.31 1104.57,-274.32 1101.1,-280.4"/>
<text text-anchor="middle" x="1090.5" y="-273.7" font-family="Times New Roman,serif" font-size="14.00">.</text>
</g>
<!-- _9_2_0 -->
<g id="node22" class="node">
<title>_9_2_0</title>
<polygon fill="none" stroke="black" points="1112.25,-0.5 1112.25,-48 1188.25,-48 1188.25,-0.5 1112.25,-0.5"/>
<text text-anchor="middle" x="1150.25" y="-30.7" font-family="Times New Roman,serif" font-size="14.00">?</text>
<polyline fill="none" stroke="black" points="1112.25,-24.25 1188.25,-24.25"/>
<text text-anchor="middle" x="1150.25" y="-6.95" font-family="Times New Roman,serif" font-size="14.00">solutions:3</text>
</g>
<!-- _8_1_2&#45;&gt;_9_2_0 -->
<g id="edge21" class="edge">
<title>_8_1_2&#45;&gt;_9_2_0</title>
<path fill="none" stroke="black" d="M1068.74,-92.97C1077.56,-89.77 1086.62,-85.6 1094.25,-80.25 1104.59,-72.99 1103.58,-67.44 1112.25,-58.25 1113.06,-57.39 1113.88,-56.53 1114.72,-55.67"/>
<polygon fill="black" stroke="black" points="1116.88,-58.47 1121.54,-48.95 1111.96,-53.49 1116.88,-58.47"/>
<text text-anchor="middle" x="1090.5" y="-85.7" font-family="Times New Roman,serif" font-size="14.00">.</text>
</g>
<!-- _8_2_0&#45;&gt;_9_2_0 -->
<g id="edge23" class="edge">
<title>_8_2_0&#45;&gt;_9_2_0</title>
<path fill="none" stroke="black" d="M1068.62,-27.9C1074.66,-26.93 1080.86,-26.08 1086.75,-25.5 1091.56,-25.03 1096.58,-24.68 1101.61,-24.43"/>
<polygon fill="black" stroke="black" points="1101.65,-27.9 1111.51,-24.03 1101.39,-20.9 1101.65,-27.9"/>
<text text-anchor="middle" x="1090.5" y="-28.7" font-family="Times New Roman,serif" font-size="14.00">.</text>
</g>
<!-- _9_2_1 -->
<g id="node23" class="node">
<title>_9_2_1</title>
<polygon fill="none" stroke="black" points="1112.25,-67.5 1112.25,-115 1188.25,-115 1188.25,-67.5 1112.25,-67.5"/>
<text text-anchor="middle" x="1150.25" y="-97.7" font-family="Times New Roman,serif" font-size="14.00">?</text>
<polyline fill="none" stroke="black" points="1112.25,-91.25 1188.25,-91.25"/>
<text text-anchor="middle" x="1150.25" y="-73.95" font-family="Times New Roman,serif" font-size="14.00">solutions:1</text>
</g>
<!-- _8_2_0&#45;&gt;_9_2_1 -->
<g id="edge22" class="edge">
<title>_8_2_0&#45;&gt;_9_2_1</title>
<path fill="none" stroke="black" d="M1068.48,-52.33C1076.95,-56.3 1085.92,-60.53 1094.25,-64.5 1096.99,-65.81 1099.8,-67.16 1102.64,-68.52"/>
<polygon fill="black" stroke="black" points="1100.78,-71.99 1111.31,-73.19 1103.82,-65.69 1100.78,-71.99"/>
<text text-anchor="middle" x="1090.5" y="-66.7" font-family="Times New Roman,serif" font-size="14.00">#</text>
</g>
<!-- _10_1_2 -->
<g id="node26" class="node">
<title>_10_1_2</title>
<polygon fill="none" stroke="black" points="1231.75,-212.5 1231.75,-260 1307.75,-260 1307.75,-212.5 1231.75,-212.5"/>
<text text-anchor="middle" x="1269.75" y="-242.7" font-family="Times New Roman,serif" font-size="14.00">?</text>
<polyline fill="none" stroke="black" points="1231.75,-236.25 1307.75,-236.25"/>
<text text-anchor="middle" x="1269.75" y="-218.95" font-family="Times New Roman,serif" font-size="14.00">solutions:1</text>
</g>
<!-- _9_1_1&#45;&gt;_10_1_2 -->
<g id="edge26" class="edge">
<title>_9_1_1&#45;&gt;_10_1_2</title>
<path fill="none" stroke="black" d="M1188.11,-236.25C1198.6,-236.25 1210.19,-236.25 1221.23,-236.25"/>
<polygon fill="black" stroke="black" points="1221.03,-239.75 1231.03,-236.25 1221.03,-232.75 1221.03,-239.75"/>
<text text-anchor="middle" x="1210" y="-238.7" font-family="Times New Roman,serif" font-size="14.00">#</text>
</g>
<!-- _10_1_1 -->
<g id="node24" class="node">
<title>_10_1_1</title>
<polygon fill="none" stroke="black" points="1231.75,-279.5 1231.75,-327 1307.75,-327 1307.75,-279.5 1231.75,-279.5"/>
<text text-anchor="middle" x="1269.75" y="-309.7" font-family="Times New Roman,serif" font-size="14.00">?</text>
<polyline fill="none" stroke="black" points="1231.75,-303.25 1307.75,-303.25"/>
<text text-anchor="middle" x="1269.75" y="-285.95" font-family="Times New Roman,serif" font-size="14.00">solutions:0</text>
</g>
<!-- _9_1_0&#45;&gt;_10_1_1 -->
<g id="edge24" class="edge">
<title>_9_1_0&#45;&gt;_10_1_1</title>
<path fill="none" stroke="black" d="M1188.11,-303.25C1198.6,-303.25 1210.19,-303.25 1221.23,-303.25"/>
<polygon fill="black" stroke="black" points="1221.03,-306.75 1231.03,-303.25 1221.03,-299.75 1221.03,-306.75"/>
<text text-anchor="middle" x="1210" y="-305.7" font-family="Times New Roman,serif" font-size="14.00">#</text>
</g>
<!-- _10_1_0 -->
<g id="node25" class="node">
<title>_10_1_0</title>
<polygon fill="none" stroke="black" points="1231.75,-346.5 1231.75,-394 1307.75,-394 1307.75,-346.5 1231.75,-346.5"/>
<text text-anchor="middle" x="1269.75" y="-376.7" font-family="Times New Roman,serif" font-size="14.00">?</text>
<polyline fill="none" stroke="black" points="1231.75,-370.25 1307.75,-370.25"/>
<text text-anchor="middle" x="1269.75" y="-352.95" font-family="Times New Roman,serif" font-size="14.00">solutions:0</text>
</g>
<!-- _9_1_0&#45;&gt;_10_1_0 -->
<g id="edge25" class="edge">
<title>_9_1_0&#45;&gt;_10_1_0</title>
<path fill="none" stroke="black" d="M1188.11,-324.27C1199.04,-330.5 1211.16,-337.41 1222.61,-343.94"/>
<polygon fill="black" stroke="black" points="1220.6,-347.4 1231.03,-349.31 1224.07,-341.32 1220.6,-347.4"/>
<text text-anchor="middle" x="1210" y="-340.7" font-family="Times New Roman,serif" font-size="14.00">.</text>
</g>
<!-- _10_2_0 -->
<g id="node27" class="node">
<title>_10_2_0</title>
<polygon fill="none" stroke="black" points="1231.75,-140.5 1231.75,-188 1307.75,-188 1307.75,-140.5 1231.75,-140.5"/>
<text text-anchor="middle" x="1269.75" y="-170.7" font-family="Times New Roman,serif" font-size="14.00">?</text>
<polyline fill="none" stroke="black" points="1231.75,-164.25 1307.75,-164.25"/>
<text text-anchor="middle" x="1269.75" y="-146.95" font-family="Times New Roman,serif" font-size="14.00">solutions:2</text>
</g>
<!-- _9_1_2&#45;&gt;_10_2_0 -->
<g id="edge27" class="edge">
<title>_9_1_2&#45;&gt;_10_2_0</title>
<path fill="none" stroke="black" d="M1188.11,-167.68C1198.6,-167.23 1210.19,-166.74 1221.23,-166.27"/>
<polygon fill="black" stroke="black" points="1221.18,-169.73 1231.03,-165.81 1220.89,-162.74 1221.18,-169.73"/>
<text text-anchor="middle" x="1210" y="-168.7" font-family="Times New Roman,serif" font-size="14.00">.</text>
</g>
<!-- _9_2_0&#45;&gt;_10_2_0 -->
<g id="edge29" class="edge">
<title>_9_2_0&#45;&gt;_10_2_0</title>
<path fill="none" stroke="black" d="M1179.88,-47.81C1182.95,-51.11 1185.84,-54.62 1188.25,-58.25 1201.32,-77.92 1193.05,-88.66 1206.25,-108.25 1212.36,-117.31 1220.25,-125.87 1228.36,-133.44"/>
<polygon fill="black" stroke="black" points="1225.68,-135.64 1235.48,-139.67 1230.33,-130.41 1225.68,-135.64"/>
<text text-anchor="middle" x="1210" y="-119.7" font-family="Times New Roman,serif" font-size="14.00">.</text>
</g>
<!-- _10_2_1 -->
<g id="node28" class="node">
<title>_10_2_1</title>
<polygon fill="none" stroke="black" points="1231.75,-0.5 1231.75,-48 1307.75,-48 1307.75,-0.5 1231.75,-0.5"/>
<text text-anchor="middle" x="1269.75" y="-30.7" font-family="Times New Roman,serif" font-size="14.00">?</text>
<polyline fill="none" stroke="black" points="1231.75,-24.25 1307.75,-24.25"/>
<text text-anchor="middle" x="1269.75" y="-6.95" font-family="Times New Roman,serif" font-size="14.00">solutions:1</text>
</g>
<!-- _9_2_0&#45;&gt;_10_2_1 -->
<g id="edge28" class="edge">
<title>_9_2_0&#45;&gt;_10_2_1</title>
<path fill="none" stroke="black" d="M1188.11,-24.25C1198.6,-24.25 1210.19,-24.25 1221.23,-24.25"/>
<polygon fill="black" stroke="black" points="1221.03,-27.75 1231.03,-24.25 1221.03,-20.75 1221.03,-27.75"/>
<text text-anchor="middle" x="1210" y="-26.7" font-family="Times New Roman,serif" font-size="14.00">#</text>
</g>
<!-- _10_3_0 -->
<g id="node29" class="node">
<title>_10_3_0</title>
<polygon fill="none" stroke="black" points="1231.75,-67.5 1231.75,-115 1307.75,-115 1307.75,-67.5 1231.75,-67.5"/>
<text text-anchor="middle" x="1269.75" y="-97.7" font-family="Times New Roman,serif" font-size="14.00">?</text>
<polyline fill="none" stroke="black" points="1231.75,-91.25 1307.75,-91.25"/>
<text text-anchor="middle" x="1269.75" y="-73.95" font-family="Times New Roman,serif" font-size="14.00">solutions:1</text>
</g>
<!-- _9_2_1&#45;&gt;_10_3_0 -->
<g id="edge30" class="edge">
<title>_9_2_1&#45;&gt;_10_3_0</title>
<path fill="none" stroke="black" d="M1188.11,-91.25C1198.6,-91.25 1210.19,-91.25 1221.23,-91.25"/>
<polygon fill="black" stroke="black" points="1221.03,-94.75 1231.03,-91.25 1221.03,-87.75 1221.03,-94.75"/>
<text text-anchor="middle" x="1210" y="-93.7" font-family="Times New Roman,serif" font-size="14.00">.</text>
</g>
<!-- _11_1_2 -->
<g id="node32" class="node">
<title>_11_1_2</title>
<polygon fill="none" stroke="black" points="1351.25,-279.5 1351.25,-327 1427.25,-327 1427.25,-279.5 1351.25,-279.5"/>
<text text-anchor="middle" x="1389.25" y="-309.7" font-family="Times New Roman,serif" font-size="14.00">?</text>
<polyline fill="none" stroke="black" points="1351.25,-303.25 1427.25,-303.25"/>
<text text-anchor="middle" x="1389.25" y="-285.95" font-family="Times New Roman,serif" font-size="14.00">solutions:0</text>
</g>
<!-- _10_1_1&#45;&gt;_11_1_2 -->
<g id="edge33" class="edge">
<title>_10_1_1&#45;&gt;_11_1_2</title>
<path fill="none" stroke="black" d="M1307.61,-303.25C1318.1,-303.25 1329.69,-303.25 1340.73,-303.25"/>
<polygon fill="black" stroke="black" points="1340.53,-306.75 1350.53,-303.25 1340.53,-299.75 1340.53,-306.75"/>
<text text-anchor="middle" x="1329.5" y="-305.7" font-family="Times New Roman,serif" font-size="14.00">#</text>
</g>
<!-- _11_1_1 -->
<g id="node30" class="node">
<title>_11_1_1</title>
<polygon fill="none" stroke="black" points="1351.25,-346.5 1351.25,-394 1427.25,-394 1427.25,-346.5 1351.25,-346.5"/>
<text text-anchor="middle" x="1389.25" y="-376.7" font-family="Times New Roman,serif" font-size="14.00">?</text>
<polyline fill="none" stroke="black" points="1351.25,-370.25 1427.25,-370.25"/>
<text text-anchor="middle" x="1389.25" y="-352.95" font-family="Times New Roman,serif" font-size="14.00">solutions:0</text>
</g>
<!-- _10_1_0&#45;&gt;_11_1_1 -->
<g id="edge31" class="edge">
<title>_10_1_0&#45;&gt;_11_1_1</title>
<path fill="none" stroke="black" d="M1307.61,-370.25C1318.1,-370.25 1329.69,-370.25 1340.73,-370.25"/>
<polygon fill="black" stroke="black" points="1340.53,-373.75 1350.53,-370.25 1340.53,-366.75 1340.53,-373.75"/>
<text text-anchor="middle" x="1329.5" y="-372.7" font-family="Times New Roman,serif" font-size="14.00">#</text>
</g>
<!-- _11_1_0 -->
<g id="node31" class="node">
<title>_11_1_0</title>
<polygon fill="none" stroke="black" points="1351.25,-413.5 1351.25,-461 1427.25,-461 1427.25,-413.5 1351.25,-413.5"/>
<text text-anchor="middle" x="1389.25" y="-443.7" font-family="Times New Roman,serif" font-size="14.00">?</text>
<polyline fill="none" stroke="black" points="1351.25,-437.25 1427.25,-437.25"/>
<text text-anchor="middle" x="1389.25" y="-419.95" font-family="Times New Roman,serif" font-size="14.00">solutions:0</text>
</g>
<!-- _10_1_0&#45;&gt;_11_1_0 -->
<g id="edge32" class="edge">
<title>_10_1_0&#45;&gt;_11_1_0</title>
<path fill="none" stroke="black" d="M1307.61,-391.27C1318.54,-397.5 1330.66,-404.41 1342.11,-410.94"/>
<polygon fill="black" stroke="black" points="1340.1,-414.4 1350.53,-416.31 1343.57,-408.32 1340.1,-414.4"/>
<text text-anchor="middle" x="1329.5" y="-407.7" font-family="Times New Roman,serif" font-size="14.00">.</text>
</g>
<!-- _11_2_0 -->
<g id="node33" class="node">
<title>_11_2_0</title>
<polygon fill="none" stroke="black" points="1351.25,-207.5 1351.25,-255 1427.25,-255 1427.25,-207.5 1351.25,-207.5"/>
<text text-anchor="middle" x="1389.25" y="-237.7" font-family="Times New Roman,serif" font-size="14.00">?</text>
<polyline fill="none" stroke="black" points="1351.25,-231.25 1427.25,-231.25"/>
<text text-anchor="middle" x="1389.25" y="-213.95" font-family="Times New Roman,serif" font-size="14.00">solutions:1</text>
</g>
<!-- _10_1_2&#45;&gt;_11_2_0 -->
<g id="edge34" class="edge">
<title>_10_1_2&#45;&gt;_11_2_0</title>
<path fill="none" stroke="black" d="M1307.61,-234.68C1318.1,-234.23 1329.69,-233.74 1340.73,-233.27"/>
<polygon fill="black" stroke="black" points="1340.68,-236.73 1350.53,-232.81 1340.39,-229.74 1340.68,-236.73"/>
<text text-anchor="middle" x="1329.5" y="-235.7" font-family="Times New Roman,serif" font-size="14.00">.</text>
</g>
<!-- _10_2_0&#45;&gt;_11_2_0 -->
<g id="edge36" class="edge">
<title>_10_2_0&#45;&gt;_11_2_0</title>
<path fill="none" stroke="black" d="M1307.61,-185.27C1318.54,-191.5 1330.66,-198.41 1342.11,-204.94"/>
<polygon fill="black" stroke="black" points="1340.1,-208.4 1350.53,-210.31 1343.57,-202.32 1340.1,-208.4"/>
<text text-anchor="middle" x="1329.5" y="-201.7" font-family="Times New Roman,serif" font-size="14.00">.</text>
</g>
<!-- _11_2_1 -->
<g id="node34" class="node">
<title>_11_2_1</title>
<polygon fill="none" stroke="black" points="1351.25,-134.5 1351.25,-182 1427.25,-182 1427.25,-134.5 1351.25,-134.5"/>
<text text-anchor="middle" x="1389.25" y="-164.7" font-family="Times New Roman,serif" font-size="14.00">?</text>
<polyline fill="none" stroke="black" points="1351.25,-158.25 1427.25,-158.25"/>
<text text-anchor="middle" x="1389.25" y="-140.95" font-family="Times New Roman,serif" font-size="14.00">solutions:1</text>
</g>
<!-- _10_2_0&#45;&gt;_11_2_1 -->
<g id="edge35" class="edge">
<title>_10_2_0&#45;&gt;_11_2_1</title>
<path fill="none" stroke="black" d="M1307.71,-160.72C1313.73,-160.24 1319.91,-159.81 1325.75,-159.5 1330.57,-159.24 1335.61,-159.04 1340.64,-158.88"/>
<polygon fill="black" stroke="black" points="1340.65,-162.35 1350.55,-158.58 1340.46,-155.35 1340.65,-162.35"/>
<text text-anchor="middle" x="1329.5" y="-161.7" font-family="Times New Roman,serif" font-size="14.00">#</text>
</g>
<!-- _11_3_0 -->
<g id="node35" class="node">
<title>_11_3_0</title>
<polygon fill="none" stroke="black" points="1351.25,-67.5 1351.25,-115 1427.25,-115 1427.25,-67.5 1351.25,-67.5"/>
<text text-anchor="middle" x="1389.25" y="-97.7" font-family="Times New Roman,serif" font-size="14.00">?</text>
<polyline fill="none" stroke="black" points="1351.25,-91.25 1427.25,-91.25"/>
<text text-anchor="middle" x="1389.25" y="-73.95" font-family="Times New Roman,serif" font-size="14.00">solutions:1</text>
</g>
<!-- _10_2_1&#45;&gt;_11_3_0 -->
<g id="edge37" class="edge">
<title>_10_2_1&#45;&gt;_11_3_0</title>
<path fill="none" stroke="black" d="M1307.61,-45.27C1318.54,-51.5 1330.66,-58.41 1342.11,-64.94"/>
<polygon fill="black" stroke="black" points="1340.1,-68.4 1350.53,-70.31 1343.57,-62.32 1340.1,-68.4"/>
<text text-anchor="middle" x="1329.5" y="-62.7" font-family="Times New Roman,serif" font-size="14.00">.</text>
</g>
<!-- _10_3_0&#45;&gt;_11_3_0 -->
<g id="edge38" class="edge">
<title>_10_3_0&#45;&gt;_11_3_0</title>
<path fill="none" stroke="black" d="M1307.61,-91.25C1318.1,-91.25 1329.69,-91.25 1340.73,-91.25"/>
<polygon fill="black" stroke="black" points="1340.53,-94.75 1350.53,-91.25 1340.53,-87.75 1340.53,-94.75"/>
<text text-anchor="middle" x="1329.5" y="-93.7" font-family="Times New Roman,serif" font-size="14.00">.</text>
</g>
<!-- _12_1_2 -->
<g id="node38" class="node">
<title>_12_1_2</title>
<polygon fill="none" stroke="black" points="1470.75,-346.5 1470.75,-394 1546.75,-394 1546.75,-346.5 1470.75,-346.5"/>
<text text-anchor="middle" x="1508.75" y="-376.7" font-family="Times New Roman,serif" font-size="14.00">.</text>
<polyline fill="none" stroke="black" points="1470.75,-370.25 1546.75,-370.25"/>
<text text-anchor="middle" x="1508.75" y="-352.95" font-family="Times New Roman,serif" font-size="14.00">solutions:0</text>
</g>
<!-- _11_1_1&#45;&gt;_12_1_2 -->
<g id="edge41" class="edge">
<title>_11_1_1&#45;&gt;_12_1_2</title>
<path fill="none" stroke="black" d="M1427.11,-370.25C1437.6,-370.25 1449.19,-370.25 1460.23,-370.25"/>
<polygon fill="black" stroke="black" points="1460.03,-373.75 1470.03,-370.25 1460.03,-366.75 1460.03,-373.75"/>
<text text-anchor="middle" x="1449" y="-372.7" font-family="Times New Roman,serif" font-size="14.00">#</text>
</g>
<!-- _12_2_0 -->
<g id="node39" class="node">
<title>_12_2_0</title>
<polygon fill="none" stroke="black" points="1470.75,-279.5 1470.75,-327 1546.75,-327 1546.75,-279.5 1470.75,-279.5"/>
<text text-anchor="middle" x="1508.75" y="-309.7" font-family="Times New Roman,serif" font-size="14.00">.</text>
<polyline fill="none" stroke="black" points="1470.75,-303.25 1546.75,-303.25"/>
<text text-anchor="middle" x="1508.75" y="-285.95" font-family="Times New Roman,serif" font-size="14.00">solutions:0</text>
</g>
<!-- _11_1_1&#45;&gt;_12_2_0 -->
<g id="edge42" class="edge">
<title>_11_1_1&#45;&gt;_12_2_0</title>
<path fill="none" stroke="black" d="M1427.11,-349.23C1438.04,-343 1450.16,-336.09 1461.61,-329.56"/>
<polygon fill="black" stroke="black" points="1463.07,-332.18 1470.03,-324.19 1459.6,-326.1 1463.07,-332.18"/>
<text text-anchor="middle" x="1449" y="-340.7" font-family="Times New Roman,serif" font-size="14.00">.</text>
</g>
<!-- _12_1_1 -->
<g id="node36" class="node">
<title>_12_1_1</title>
<polygon fill="none" stroke="black" points="1470.75,-413.5 1470.75,-461 1546.75,-461 1546.75,-413.5 1470.75,-413.5"/>
<text text-anchor="middle" x="1508.75" y="-443.7" font-family="Times New Roman,serif" font-size="14.00">.</text>
<polyline fill="none" stroke="black" points="1470.75,-437.25 1546.75,-437.25"/>
<text text-anchor="middle" x="1508.75" y="-419.95" font-family="Times New Roman,serif" font-size="14.00">solutions:0</text>
</g>
<!-- _11_1_0&#45;&gt;_12_1_1 -->
<g id="edge39" class="edge">
<title>_11_1_0&#45;&gt;_12_1_1</title>
<path fill="none" stroke="black" d="M1427.11,-437.25C1437.6,-437.25 1449.19,-437.25 1460.23,-437.25"/>
<polygon fill="black" stroke="black" points="1460.03,-440.75 1470.03,-437.25 1460.03,-433.75 1460.03,-440.75"/>
<text text-anchor="middle" x="1449" y="-439.7" font-family="Times New Roman,serif" font-size="14.00">#</text>
</g>
<!-- _12_1_0 -->
<g id="node37" class="node">
<title>_12_1_0</title>
<polygon fill="none" stroke="black" points="1470.75,-480.5 1470.75,-528 1546.75,-528 1546.75,-480.5 1470.75,-480.5"/>
<text text-anchor="middle" x="1508.75" y="-510.7" font-family="Times New Roman,serif" font-size="14.00">.</text>
<polyline fill="none" stroke="black" points="1470.75,-504.25 1546.75,-504.25"/>
<text text-anchor="middle" x="1508.75" y="-486.95" font-family="Times New Roman,serif" font-size="14.00">solutions:0</text>
</g>
<!-- _11_1_0&#45;&gt;_12_1_0 -->
<g id="edge40" class="edge">
<title>_11_1_0&#45;&gt;_12_1_0</title>
<path fill="none" stroke="black" d="M1427.11,-458.27C1438.04,-464.5 1450.16,-471.41 1461.61,-477.94"/>
<polygon fill="black" stroke="black" points="1459.6,-481.4 1470.03,-483.31 1463.07,-475.32 1459.6,-481.4"/>
<text text-anchor="middle" x="1449" y="-474.7" font-family="Times New Roman,serif" font-size="14.00">.</text>
</g>
<!-- _11_1_2&#45;&gt;_12_2_0 -->
<g id="edge43" class="edge">
<title>_11_1_2&#45;&gt;_12_2_0</title>
<path fill="none" stroke="black" d="M1427.11,-303.25C1437.6,-303.25 1449.19,-303.25 1460.23,-303.25"/>
<polygon fill="black" stroke="black" points="1460.03,-306.75 1470.03,-303.25 1460.03,-299.75 1460.03,-306.75"/>
<text text-anchor="middle" x="1449" y="-305.7" font-family="Times New Roman,serif" font-size="14.00">.</text>
</g>
<!-- _11_2_0&#45;&gt;_12_2_0 -->
<g id="edge45" class="edge">
<title>_11_2_0&#45;&gt;_12_2_0</title>
<path fill="none" stroke="black" d="M1427.11,-253.83C1438.15,-260.6 1450.4,-268.11 1461.95,-275.19"/>
<polygon fill="black" stroke="black" points="1459.67,-278.51 1470.03,-280.75 1463.33,-272.54 1459.67,-278.51"/>
<text text-anchor="middle" x="1449" y="-271.7" font-family="Times New Roman,serif" font-size="14.00">.</text>
</g>
<!-- _12_2_1 -->
<g id="node40" class="node">
<title>_12_2_1</title>
<polygon fill="none" stroke="black" points="1470.75,-201.5 1470.75,-249 1546.75,-249 1546.75,-201.5 1470.75,-201.5"/>
<text text-anchor="middle" x="1508.75" y="-231.7" font-family="Times New Roman,serif" font-size="14.00">.</text>
<polyline fill="none" stroke="black" points="1470.75,-225.25 1546.75,-225.25"/>
<text text-anchor="middle" x="1508.75" y="-207.95" font-family="Times New Roman,serif" font-size="14.00">solutions:1</text>
</g>
<!-- _11_2_0&#45;&gt;_12_2_1 -->
<g id="edge44" class="edge">
<title>_11_2_0&#45;&gt;_12_2_1</title>
<path fill="none" stroke="black" d="M1427.21,-227.72C1433.23,-227.24 1439.41,-226.81 1445.25,-226.5 1450.07,-226.24 1455.11,-226.04 1460.14,-225.88"/>
<polygon fill="black" stroke="black" points="1460.15,-229.35 1470.05,-225.58 1459.96,-222.35 1460.15,-229.35"/>
<text text-anchor="middle" x="1449" y="-228.7" font-family="Times New Roman,serif" font-size="14.00">#</text>
</g>
<!-- _12_3_0 -->
<g id="node41" class="node">
<title>_12_3_0</title>
<polygon fill="none" stroke="black" points="1470.75,-134.5 1470.75,-182 1546.75,-182 1546.75,-134.5 1470.75,-134.5"/>
<text text-anchor="middle" x="1508.75" y="-164.7" font-family="Times New Roman,serif" font-size="14.00">.</text>
<polyline fill="none" stroke="black" points="1470.75,-158.25 1546.75,-158.25"/>
<text text-anchor="middle" x="1508.75" y="-140.95" font-family="Times New Roman,serif" font-size="14.00">solutions:1</text>
</g>
<!-- _11_2_1&#45;&gt;_12_3_0 -->
<g id="edge46" class="edge">
<title>_11_2_1&#45;&gt;_12_3_0</title>
<path fill="none" stroke="black" d="M1427.11,-158.25C1437.6,-158.25 1449.19,-158.25 1460.23,-158.25"/>
<polygon fill="black" stroke="black" points="1460.03,-161.75 1470.03,-158.25 1460.03,-154.75 1460.03,-161.75"/>
<text text-anchor="middle" x="1449" y="-160.7" font-family="Times New Roman,serif" font-size="14.00">.</text>
</g>
<!-- _11_3_0&#45;&gt;_12_3_0 -->
<g id="edge47" class="edge">
<title>_11_3_0&#45;&gt;_12_3_0</title>
<path fill="none" stroke="black" d="M1427.11,-112.27C1438.04,-118.5 1450.16,-125.41 1461.61,-131.94"/>
<polygon fill="black" stroke="black" points="1459.6,-135.4 1470.03,-137.31 1463.07,-129.32 1459.6,-135.4"/>
<text text-anchor="middle" x="1449" y="-128.7" font-family="Times New Roman,serif" font-size="14.00">.</text>
</g>
<!-- _13_2_0 -->
<g id="node43" class="node">
<title>_13_2_0</title>
<ellipse fill="none" stroke="black" cx="1630.08" cy="-370.25" rx="43.58" ry="18"/>
<text text-anchor="middle" x="1630.08" y="-364.82" font-family="Times New Roman,serif" font-size="14.00">_13_2_0</text>
</g>
<!-- _12_1_1&#45;&gt;_13_2_0 -->
<g id="edge49" class="edge">
<title>_12_1_1&#45;&gt;_13_2_0</title>
<path fill="none" stroke="black" d="M1546.53,-416.6C1561.58,-408.15 1578.93,-398.41 1593.82,-390.05"/>
<polygon fill="black" stroke="black" points="1595.2,-392.72 1602.21,-384.78 1591.77,-386.62 1595.2,-392.72"/>
<text text-anchor="middle" x="1566.62" y="-407.7" font-family="Times New Roman,serif" font-size="14.00">.</text>
</g>
<!-- _13_1_0 -->
<g id="node42" class="node">
<title>_13_1_0</title>
<ellipse fill="none" stroke="black" cx="1630.08" cy="-504.25" rx="43.58" ry="18"/>
<text text-anchor="middle" x="1630.08" y="-498.82" font-family="Times New Roman,serif" font-size="14.00">_13_1_0</text>
</g>
<!-- _12_1_0&#45;&gt;_13_1_0 -->
<g id="edge48" class="edge">
<title>_12_1_0&#45;&gt;_13_1_0</title>
<path fill="none" stroke="black" d="M1546.53,-504.25C1555.68,-504.25 1565.68,-504.25 1575.47,-504.25"/>
<polygon fill="black" stroke="black" points="1575.36,-507.75 1585.36,-504.25 1575.36,-500.75 1575.36,-507.75"/>
<text text-anchor="middle" x="1566.62" y="-506.7" font-family="Times New Roman,serif" font-size="14.00">.</text>
</g>
<!-- _12_1_2&#45;&gt;_13_2_0 -->
<g id="edge50" class="edge">
<title>_12_1_2&#45;&gt;_13_2_0</title>
<path fill="none" stroke="black" d="M1546.53,-370.25C1555.68,-370.25 1565.68,-370.25 1575.47,-370.25"/>
<polygon fill="black" stroke="black" points="1575.36,-373.75 1585.36,-370.25 1575.36,-366.75 1575.36,-373.75"/>
<text text-anchor="middle" x="1566.62" y="-372.7" font-family="Times New Roman,serif" font-size="14.00">.</text>
</g>
<!-- _12_2_0&#45;&gt;_13_2_0 -->
<g id="edge51" class="edge">
<title>_12_2_0&#45;&gt;_13_2_0</title>
<path fill="none" stroke="black" d="M1546.53,-323.9C1561.58,-332.35 1578.93,-342.09 1593.82,-350.45"/>
<polygon fill="black" stroke="black" points="1591.77,-353.88 1602.21,-355.72 1595.2,-347.78 1591.77,-353.88"/>
<text text-anchor="middle" x="1566.62" y="-336.7" font-family="Times New Roman,serif" font-size="14.00">.</text>
</g>
<!-- _13_3_0 -->
<g id="node44" class="node">
<title>_13_3_0</title>
<ellipse fill="none" stroke="black" cx="1630.08" cy="-188.25" rx="43.58" ry="18"/>
<text text-anchor="middle" x="1630.08" y="-182.82" font-family="Times New Roman,serif" font-size="14.00">_13_3_0</text>
</g>
<!-- _12_2_1&#45;&gt;_13_3_0 -->
<g id="edge52" class="edge">
<title>_12_2_1&#45;&gt;_13_3_0</title>
<path fill="none" stroke="black" d="M1546.53,-213.85C1558.51,-210.13 1571.95,-205.96 1584.44,-202.09"/>
<polygon fill="black" stroke="black" points="1585.15,-205.23 1593.66,-198.92 1583.08,-198.54 1585.15,-205.23"/>
<text text-anchor="middle" x="1566.62" y="-209.7" font-family="Times New Roman,serif" font-size="14.00">.</text>
</g>
<!-- _12_3_0&#45;&gt;_13_3_0 -->
<g id="edge53" class="edge">
<title>_12_3_0&#45;&gt;_13_3_0</title>
<path fill="none" stroke="black" d="M1546.53,-167.5C1557.64,-170.29 1570.01,-173.4 1581.71,-176.34"/>
<polygon fill="black" stroke="black" points="1580.67,-179.94 1591.22,-178.98 1582.37,-173.15 1580.67,-179.94"/>
<text text-anchor="middle" x="1566.62" y="-174.7" font-family="Times New Roman,serif" font-size="14.00">.</text>
</g>
</g>
</svg>
